<?xml version="1.0" encoding="utf-8"?>
<!-- Generator: Adobe Illustrator 16.0.4, SVG Export Plug-In . SVG Version: 6.00 Build 0)  -->
<!DOCTYPE svg PUBLIC "-//W3C//DTD SVG 1.1//EN" "http://www.w3.org/Graphics/SVG/1.1/DTD/svg11.dtd">
<svg version="1.1" id="Layer_1" xmlns="http://www.w3.org/2000/svg" xmlns:xlink="http://www.w3.org/1999/xlink" x="0px" y="0px"
	 width="296px" height="88px" viewBox="-467.5 436.5 296 88" enable-background="new -467.5 436.5 296 88" xml:space="preserve">
<g>
	<path fill="#9FABAA" d="M-229.479,476.676h-1.93l0.126-0.502h4.408l-0.124,0.502h-1.93l-1.441,5.764h-0.559L-229.479,476.676z
		 M-222.132,482.439h0.548l1.391-6.268h-0.81l-3.219,5.117l-0.667-5.117h-0.811l-1.756,6.268h0.553l1.567-5.705l0.594,4.898h0.856
		l3.054-4.898L-222.132,482.439z"/>
	<path fill="#C41230" d="M-196.768,443.203c-3.453-5.062-9.18-5.053-9.18-5.053s6.281,5.053,6.435,13.574
		c0,0,4.971,0.986,5.829,7.086c0,0,1.708-3.514-1.706-6.621c-0.689-0.623-0.657-2.029-0.564-3.838
		C-195.86,446.539-195.827,444.58-196.768,443.203"/>
	<path fill="#D18316" d="M-206.284,445.561c-5.52-2.652-10.476,0.213-10.476,0.213s7.97,1.238,12.36,8.539
		c0,0,4.789-1.633,8.588,3.221c0,0-0.281-3.893-4.787-4.881c-0.913-0.193-1.586-1.426-2.409-3.039
		C-203.828,447.994-204.783,446.283-206.284,445.561"/>
	<path fill="#CB9F2E" d="M-213.343,452.363c-6.111,0.457-8.966,5.424-8.966,5.424s7.509-2.918,14.965,1.209
		c0,0,3.343-3.805,9.048-1.506c0,0-2.188-3.23-6.584-1.826c-0.888,0.277-2.086-0.447-3.6-1.43
		C-210.006,453.244-211.688,452.236-213.343,452.363"/>
	<path fill="#CBCD19" d="M-216.061,461.783c-5.068,3.453-5.058,9.178-5.058,9.178s5.058-6.283,13.569-6.439
		c0,0,0.992-4.963,7.086-5.824c0,0-3.508-1.703-6.619,1.713c-0.622,0.688-2.021,0.656-3.839,0.561
		C-212.729,460.875-214.686,460.846-216.061,461.783"/>
	<path fill="#78A22F" d="M-213.703,471.299c-2.66,5.521,0.213,10.475,0.213,10.475s1.237-7.965,8.532-12.355
		c0,0-1.623-4.797,3.218-8.588c0,0-3.892,0.275-4.872,4.785c-0.197,0.91-1.424,1.588-3.042,2.408
		C-211.268,468.846-212.985,469.801-213.703,471.299"/>
	<path fill="#008752" d="M-206.908,478.363c0.459,6.111,5.429,8.961,5.429,8.961s-2.914-7.51,1.209-14.961
		c0,0-3.807-3.348-1.503-9.055c0,0-3.236,2.189-1.826,6.586c0.274,0.879-0.448,2.086-1.438,3.604
		C-206.025,475.021-207.034,476.703-206.908,478.363"/>
	<path fill="#008D7F" d="M-197.492,481.078c3.463,5.062,9.193,5.051,9.193,5.051s-6.286-5.051-6.44-13.564
		c0,0-4.973-0.994-5.832-7.088c0,0-1.705,3.514,1.712,6.621c0.684,0.621,0.654,2.029,0.56,3.834
		C-198.392,477.74-198.417,479.709-197.492,481.078"/>
	<path fill="#5AB7B2" d="M-187.968,478.723c5.518,2.654,10.475-0.221,10.475-0.221s-7.966-1.232-12.359-8.531
		c0,0-4.791,1.631-8.587-3.221c0,0,0.277,3.891,4.785,4.877c0.91,0.197,1.587,1.43,2.41,3.039
		C-190.422,476.281-189.464,478.002-187.968,478.723"/>
	<path fill="#007DBB" d="M-180.9,471.922c6.106-0.457,8.962-5.426,8.962-5.426s-7.519,2.914-14.971-1.209
		c0,0-3.342,3.805-9.048,1.502c0,0,2.19,3.234,6.582,1.828c0.892-0.281,2.09,0.445,3.604,1.436
		C-184.246,471.037-182.566,472.051-180.9,471.922"/>
	<path fill="#414099" d="M-178.185,462.5c5.053-3.451,5.05-9.178,5.05-9.178s-5.05,6.277-13.566,6.436c0,0-0.99,4.965-7.099,5.826
		c0,0,3.52,1.709,6.628-1.711c0.623-0.684,2.022-0.654,3.833-0.561C-181.524,463.412-179.558,463.441-178.185,462.5"/>
	<path fill="#781D7E" d="M-180.547,452.986c2.658-5.525-0.22-10.479-0.22-10.479s-1.232,7.965-8.526,12.357
		c0,0,1.626,4.795-3.222,8.592c0,0,3.89-0.283,4.873-4.795c0.202-0.898,1.43-1.584,3.044-2.4
		C-182.979,455.439-181.263,454.482-180.547,452.986"/>
	<path fill="#B1005D" d="M-187.341,445.918c-0.461-6.105-5.437-8.963-5.437-8.963s2.924,7.512-1.199,14.967
		c0,0,3.805,3.344,1.503,9.057c0,0,3.227-2.191,1.828-6.588c-0.281-0.881,0.443-2.088,1.434-3.607
		C-188.225,449.264-187.22,447.58-187.341,445.918"/>
	<path fill="#9FABAA" d="M-272.261,486.477h5.625l-6.327,28.756c-5.566,0-4.292-5.967-4.281-6.035L-272.261,486.477z
		 M-270.404,478.098l-1.184,5.33h5.622l0.019-0.057C-265.83,481.756-266.023,478.037-270.404,478.098"/>
	<path fill="#9FABAA" d="M-334.627,486.475h-7.629l1.832-8.377c-5.29-0.969-6.701,4.975-6.73,5.086l-5.703,25.936
		c-0.011,0.07-1.286,6.105,4.281,6.105l5.213-23.607h2.725c1.651-0.076,5.428-0.67,6.001-5.025L-334.627,486.475z"/>
	<path fill="#9FABAA" d="M-302.276,491.727c0,0,4.691,0.182,5.385-5.084l0.02-0.168h-3.423c-2.334,0-3.34,0-4.544,0.27
		c-3.266,0.635-5.865,3.078-6.656,6.684l-3.438,15.701c-0.019,0.062-1.285,6.1,4.278,6.1l4.507-20.531
		c0.368-1.596,1.47-2.678,3.025-2.863c0.14-0.018,0.51-0.084,0.841-0.105L-302.276,491.727z"/>
	<path fill="#9FABAA" d="M-319.979,486.484h-0.063l-4.555,20.732c-0.301,1.482-1.583,2.639-2.901,2.639h-4.031
		c0,0,3.538-16.576,3.787-17.74c0.256-1.16,0.047-5.551-4.216-5.631l-0.149-0.004l-4.131,18.932
		c-0.268,1.221-0.492,2.117-0.649,3.287c-0.428,3.289,1.13,5.146,3.355,5.992c1.359,0.533,1.827,0.533,3.556,0.533
		c1.063,0,2.864,0,4.072-0.27c3.27-0.635,5.866-3.074,6.66-6.682l3.415-15.605C-315.771,492.357-314.872,486.584-319.979,486.484"/>
	<path fill="#9FABAA" d="M-223.839,492.803c-0.152,1.162-0.645,3.285-1.1,5.139c-0.84,3.557-4.199,6.051-7.463,6.686
		c-0.981,0.215-2.346,0.268-4.43,0.268h-1.431l-0.223,0.9c-0.152,0.748-0.303,1.568-0.352,1.943
		c-0.134,1.008,0.313,1.643,1.233,1.91c0.662,0.207,1.146,0.207,1.583,0.207h6.546l-0.021,0.172
		c-0.691,5.268-6.776,4.992-6.776,4.992v0.002h-0.545c-2.444,0-3.095,0-4.456-0.529c-2.224-0.85-3.782-2.705-3.352-5.99
		c0.151-1.172,0.377-2.066,0.646-3.287l2.633-11.984c0.795-3.611,3.396-6.049,6.66-6.688c1.205-0.264,2.084-0.264,2.78-0.264
		c0.994,0,3.351,0,4.715,0.527C-224.967,487.656-223.408,489.512-223.839,492.803 M-230.951,491.732
		c-0.349-0.092-1.789-0.135-2.06-0.107c-1.557,0.182-2.66,1.273-3.028,2.867l-1.107,5.15h2.258c0.55,0,0.658,0,1.626-0.107
		c1.281-0.135,2.249-0.947,2.761-2.115c0.187-0.318,0.324-0.668,0.405-1.057c0,0,0.363-1.818,0.435-2.354
		C-229.515,492.898-229.969,491.998-230.951,491.732"/>
	<path fill="#9FABAA" d="M-249.226,486.811c-1.362-0.531-3.513-0.531-3.763-0.531c-1.595,0-2.733,0-3.937,0.271
		c-3.261,0.635-5.819,3.027-6.646,6.896l-3.404,15.672c-0.013,0.072-1.208,6.051,4.265,6.113l5.102-23.385h3.952h0.004
		c0.887,0,1.544,0.527,1.822,1.32c0.003,0.004,0.258,0.73,0.08,1.584l-3.119,14.385c-0.016,0.062-1.352,6.09,4.213,6.09
		c0,0,4.534-20.465,4.78-22.42C-245.458,489.516-247.003,487.66-249.226,486.811"/>
	<path fill="#9FABAA" d="M-278.329,493.002c-0.155,1.16-0.378,2.068-0.648,3.287l-2.633,11.986c-0.795,3.605-3.398,6.045-6.661,6.68
		c-1.204,0.27-2.21,0.27-3.082,0.27c-0.35,0-3.145,0-4.51-0.533c-2.226-0.846-3.781-2.703-3.348-5.992
		c0.149-1.168,0.374-2.066,0.644-3.287l5.989-27.311h0.07c4.871,0.027,4.491,4.625,4.319,5.754l-0.547,2.621h1.701
		c2.438,0,3.988,0,5.351,0.535C-279.459,487.859-277.899,489.713-278.329,493.002 M-284.094,493.199c0-0.01,0-0.014-0.005-0.016
		c-0.283-0.799-0.938-1.33-1.822-1.33h-0.005h-0.013c-0.088-0.008-0.312-0.006-0.583,0h-3.355l-2.831,13.311l-0.442,2.037
		c-0.346,1.479,0.268,2.475,1.756,2.637c0.466,0.057,1.064-0.037,1.395-0.092c1.73-0.256,2.825-1.17,3.164-2.279
		c0.128-0.432,0.27-1.062,0.356-1.541l2.419-10.99l0.052-0.168C-283.896,494.188-283.938,493.65-284.094,493.199"/>
	<path fill="#435C5D" d="M-407.714,486.477h5.625l-6.327,28.756c-5.567,0-4.292-5.967-4.282-6.035L-407.714,486.477z
		 M-405.859,478.098l-1.18,5.33h5.619l0.018-0.057C-401.286,481.756-401.477,478.037-405.859,478.098"/>
	<path fill="#435C5D" d="M-383.932,486.475h-7.629l1.831-8.377c-5.291-0.969-6.701,4.975-6.729,5.086l-5.704,25.936
		c-0.012,0.07-1.285,6.105,4.279,6.105l5.215-23.607h2.724c1.653-0.076,5.43-0.67,6.004-5.025L-383.932,486.475z"/>
	<path fill="#435C5D" d="M-355.01,478.098c-5.293-0.965-6.703,4.969-6.731,5.088l-5.705,25.934c-0.017,0.07-1.292,6.105,4.279,6.105
		L-355.01,478.098z"/>
	<path fill="#435C5D" d="M-443.877,483.35l-0.012,0.055l-5.456,24.924c-0.792,3.607-3.394,6.051-6.663,6.686
		c-1.199,0.264-2.479,0.219-2.796,0.219c-1.256,0-3.471,0.045-4.835-0.486c-2.22-0.85-3.78-2.705-3.351-5.992
		c0.153-1.166,0.38-2.068,0.643-3.287l2.586-11.986c0.793-3.611,3.393-6.104,6.656-6.742c1.202-0.264,4.039-0.264,4.538-0.264h2.372
		l1.861-8.377C-443.951,478.041-443.76,481.73-443.877,483.35 M-451.285,491.838h-3.353c-0.269-0.008-0.492-0.012-0.585,0h-0.012
		c-0.892,0-1.779,0.533-2.405,1.328c-0.003,0.002-0.007,0.006-0.01,0.018c-0.352,0.451-0.632,0.992-0.764,1.566l-0.024,0.172
		l-2.389,11.057c-0.112,0.479-0.25,1.111-0.307,1.541c-0.145,1.111,0.553,2.016,2.171,2.271c0.31,0.053,0.862,0.117,1.361,0.064
		c1.557-0.168,2.597-1.121,2.897-2.607l0.438-2.025L-451.285,491.838z"/>
	<path fill="#435C5D" d="M-374.059,493.846c0.131-1.01-0.303-1.68-1.232-1.91c-0.494-0.119-1.613-0.209-1.871-0.209h0.039
		c-1.057-0.027-5.847-0.4-5.235-5.084l0.028-0.168h5.912c2.44,0,3.098,0,4.459,0.531c2.22,0.846,3.784,2.705,3.354,5.996
		c-0.156,1.158-0.382,2.062-0.648,3.283l-2.639,11.986c-0.795,3.605-3.393,6.049-6.658,6.684c-1.201,0.266-2.132,0.277-2.539,0.277
		c-1.852,0-3.604-0.014-4.967-0.545c-2.224-0.85-3.784-2.703-3.348-5.992c0.254-1.908,0.62-3.504,0.989-5.148
		c0.851-3.605,3.45-6.043,6.714-6.676c0.982-0.213,2.815-0.27,4.317-0.27h2.72C-374.662,496.602-374.109,494.217-374.059,493.846
		 M-375.877,501.854h-3.729c-1.302,0-2.614,0.75-2.91,1.721c-0.294,0.979-0.779,2.746-0.944,3.486
		c-0.161,0.738-0.148,2.062,1.433,2.555c1.579,0.484,3.14,0.322,3.969-0.607c0.823-0.932,0.881-1.461,1.12-2.496
		C-376.702,505.482-375.877,501.854-375.877,501.854"/>
	<path fill="#435C5D" d="M-413.749,492.803c-0.15,1.162-0.376,2.066-0.643,3.285l-4.614,21.008
		c-0.793,3.604-3.414,5.967-6.664,6.682c-1.199,0.268-1.762,0.268-2.777,0.268h-7.161l0.057-0.258
		c0.27-1.002,1.677-4.945,6.516-4.998h0.235c0.203,0,0.392,0,1.411-0.104c1.564-0.16,2.639-1.117,3.002-2.656l0.242-1.006h-4.497
		c-0.461,0-1.293,0.029-2.655-0.504c-2.22-0.842-3.786-2.703-3.352-5.994c0.157-1.164,0.376-2.064,0.646-3.287l2.633-11.984
		c0.792-3.609,3.399-6.045,6.661-6.684c1.202-0.264,2.59-0.291,3.839-0.291c1.448,0,2.409,0,3.768,0.531
		C-414.876,487.656-413.316,489.514-413.749,492.803 M-420.046,492.109c-0.808-0.729-2.794-0.434-2.794-0.434
		c-1.461,0.078-2.54,0.592-3.012,2.438l-3.06,12.824c-0.125,0.578-0.094,1.119,0.054,1.57c0.002,0.008,0.002,0.014,0.002,0.018
		c0.273,0.791,0.921,1.33,1.808,1.33h0.016c0.084,0.012,3.938,0,3.938,0l3.459-14.988
		C-419.302,493.332-419.244,492.838-420.046,492.109"/>
	<path fill="#435C5D" d="M-439.894,486.477h5.624l-6.327,28.748c-5.568,0-4.292-5.959-4.281-6.027L-439.894,486.477z
		 M-438.038,478.098l-1.182,5.33h5.62l0.02-0.057C-433.466,481.756-433.659,478.037-438.038,478.098"/>
</g>
</svg>
