<?xml version="1.0" encoding="utf-8"?>
<!-- Generator: Adobe Illustrator 18.1.1, SVG Export Plug-In . SVG Version: 6.00 Build 0)  -->
<svg version="1.1" id="Layer_1" xmlns="http://www.w3.org/2000/svg" xmlns:xlink="http://www.w3.org/1999/xlink" x="0px" y="0px"
	 viewBox="0 0 55.4 42.2" enable-background="new 0 0 55.4 42.2" xml:space="preserve">
<rect x="-31.5" y="-166.2" fill="#595D7A" width="130.5" height="126"/>
<text transform="matrix(1 0 0 1 224.3569 -49.5123)"><tspan x="0" y="0" fill="#E96C77" font-family="'FuturaPT-Heavy'" font-size="35.2696">T</tspan><tspan x="16.2" y="0" fill="#FFFFFF" font-family="'FuturaPT-Heavy'" font-size="35.2696">WIN</tspan><tspan x="90.4" y="0" fill="#E96C77" font-family="'FuturaPT-Heavy'" font-size="35.2696">T</tspan><tspan x="106.7" y="0" fill="#FFFFFF" font-family="'FuturaPT-Heavy'" font-size="35.2696">ECH</tspan><tspan x="171.1" y="0" fill="#E96C77" font-family="'FuturaPT-Heavy'" font-size="35.2696">T</tspan><tspan x="187.3" y="0" fill="#FFFFFF" font-family="'FuturaPT-Heavy'" font-size="35.2696">OWNS</tspan></text>
<text transform="matrix(1 0 0 1 375.8013 -34.4157)" fill="#FFFFFF" font-family="'FuturaPT-HeavyObl'" font-size="17.9434">BERLIN - TEL AVIV</text>
<g>
	<path fill="#E96C77" d="M75.2-224.7v24.2h-6.9v-24.2h-6.5v-5.8h20v5.8H75.2z"/>
	<path fill="#FFFFFF" d="M87.8-224l5,15.6l5-15.6h3.7l5,15.6l5-15.6h5.6l-8,23.5h-4.6l-4.9-14.3l-4.9,14.3h-4.6l-8-23.5H87.8z"/>
	<path fill="#FFFFFF" d="M125.5-224v23.5h-5.4V-224H125.5z"/>
	<path fill="#FFFFFF" d="M130.8-200.5V-224h4.7l12.8,15.2V-224h5.4v23.5H149l-12.8-15.2v15.2H130.8z"/>
	<path fill="#E96C77" d="M170.1-224.7v24.2h-6.9v-24.2h-6.5v-5.8h20v5.8H170.1z"/>
	<path fill="#FFFFFF" d="M192.8-219.4H185v4.5h7.5v4.6H185v5.2h7.9v4.6h-13.3V-224h13.3V-219.4z"/>
	<path fill="#FFFFFF" d="M214.2-201.3c-2.1,1.1-3.8,1.3-5.2,1.3c-4.3,0-7.3-1.5-9.2-3.4c-2.1-2-3.7-5.1-3.7-8.9
		c0-3.7,1.6-6.8,3.7-8.9c2.1-2,5.1-3.4,8.8-3.4c1.6,0,3.3,0.3,5.6,1.3v6.3c-1.2-1.3-3-2.5-5.5-2.5c-2,0-3.6,0.6-4.8,1.8
		c-1.3,1.3-2.2,3.2-2.2,5.4c0,2.4,1,4.2,2,5.2c0.5,0.5,2.2,2,5.1,2c1.4,0,3.3-0.4,5.4-2.4V-201.3z"/>
	<path fill="#FFFFFF" d="M224-215.1h9.4v-9h5.4v23.5h-5.4v-10H224v10h-5.4V-224h5.4V-215.1z"/>
	<path fill="#E96C77" d="M255.2-224.7v24.2h-6.9v-24.2h-6.5v-5.8h20v5.8H255.2z"/>
	<path fill="#FFFFFF" d="M285.5-221.1c2.2,2.2,3.7,5.3,3.7,8.9c0,3.1-1.1,6.3-3.7,8.8c-2.2,2.1-5.1,3.5-9.1,3.5
		c-4.4,0-7.4-1.8-9.2-3.5c-2.3-2.1-3.7-5.3-3.7-8.7c0-3.4,1.5-6.8,3.6-8.9c1.6-1.6,4.5-3.5,9.2-3.5
		C280.1-224.6,283.2-223.4,285.5-221.1z M271.2-217.5c-1,1-2.1,2.7-2.1,5.3c0,2.2,0.7,3.9,2.2,5.3c1.5,1.4,3.2,1.9,5,1.9
		c2.4,0,4.1-0.9,5.2-2c0.9-0.9,2-2.5,2-5.3c0-2.4-1-4.2-2-5.3c-1.2-1.1-3-2-5.2-2C274.3-219.6,272.5-218.8,271.2-217.5z"/>
	<path fill="#FFFFFF" d="M295.4-224l5,15.6l5-15.6h3.7l5,15.6l5-15.6h5.6l-8,23.5h-4.6l-4.9-14.3l-4.9,14.3h-4.6l-8-23.5H295.4z"/>
	<path fill="#FFFFFF" d="M327.6-200.5V-224h4.7l12.8,15.2V-224h5.4v23.5h-4.7L333-215.7v15.2H327.6z"/>
	<path fill="#FFFFFF" d="M367.8-218.3c-1.8-1.6-3.3-1.7-4-1.7c-0.7,0-1.7,0.1-2.3,0.8c-0.4,0.4-0.6,0.9-0.6,1.5c0,0.6,0.2,1,0.5,1.3
		c0.6,0.5,1.4,0.7,3,1.3l1.8,0.7c1,0.4,2.3,0.9,3.2,1.8c1.4,1.3,1.7,3,1.7,4.4c0,2.4-0.8,4.5-2.1,5.8c-2.1,2.2-5.1,2.4-6.7,2.4
		c-1.7,0-3.2-0.2-4.7-1c-1.2-0.6-2.6-1.7-3.5-2.6l2.8-3.9c0.6,0.6,1.6,1.4,2.2,1.8c0.9,0.6,1.9,0.8,3,0.8c0.7,0,1.7-0.1,2.5-0.8
		c0.5-0.4,0.8-1,0.8-1.9c0-0.8-0.3-1.3-0.8-1.7c-0.6-0.5-2.1-1.1-2.8-1.3l-1.9-0.7c-1.1-0.4-2.4-0.9-3.3-1.9c-1.2-1.3-1.4-3-1.4-4.1
		c0-2.1,0.6-3.8,2-5.3c1.7-1.7,3.6-2.2,5.8-2.2c1.6,0,4.2,0.3,7,2.3L367.8-218.3z"/>
</g>
<g>
	<path fill="#FFFFFF" d="M171.4-196.1h2.6c0.6,0,1.3,0.1,1.8,0.6c0.3,0.3,0.5,0.8,0.5,1.4c0,0.5-0.1,0.9-0.4,1.3
		c-0.3,0.4-0.6,0.5-0.9,0.6c0.4,0.1,0.7,0.3,0.9,0.5c0.4,0.4,0.5,0.8,0.5,1.3c0,0.9-0.3,1.4-0.7,1.8c-0.7,0.7-1.6,0.8-2.5,0.8h-3
		L171.4-196.1z M172.5-189.4h0.7c0.4,0,0.9,0,1.2-0.3c0.1-0.1,0.3-0.3,0.3-0.8c0-0.2,0-0.4-0.2-0.6c-0.3-0.3-0.8-0.3-1-0.3h-0.7
		L172.5-189.4z M172.9-192.7h0.4c0.3,0,0.8,0,1-0.3c0.2-0.2,0.3-0.5,0.3-0.7c0-0.3-0.1-0.5-0.3-0.6c-0.2-0.2-0.6-0.2-0.8-0.2h-0.4
		L172.9-192.7z"/>
	<path fill="#FFFFFF" d="M183-194.5h-2.7l-0.2,1.6h2.6l-0.2,1.6H180l-0.2,1.8h2.7l-0.2,1.6h-4.6l1-8.2h4.5L183-194.5z"/>
	<path fill="#FFFFFF" d="M187.5-196.1c0.8,0,1.6,0.1,2.2,0.7c0.3,0.3,0.6,0.8,0.6,1.7c0,0.8-0.3,1.4-0.7,1.8
		c-0.4,0.3-0.8,0.6-1.3,0.7l2.1,3.3h-2.2l-2-3.2l-0.4,3.2h-1.9l1-8.2H187.5z M186.3-192.4h0.5c0.3,0,0.8,0,1.1-0.3
		c0.3-0.3,0.4-0.6,0.4-1c0-0.3-0.1-0.6-0.4-0.8c-0.2-0.2-0.6-0.2-1-0.2h-0.3L186.3-192.4z"/>
	<path fill="#FFFFFF" d="M194.3-196.1l-0.8,6.6h2.6l-0.2,1.6h-4.5l1-8.2H194.3z"/>
	<path fill="#FFFFFF" d="M199.8-196.1l-1,8.2h-1.9l1-8.2H199.8z"/>
	<path fill="#FFFFFF" d="M200.6-187.9l1-8.2h1.6l3.8,5.3l0.7-5.3h1.9l-1,8.2H207l-3.8-5.4l-0.7,5.4H200.6z"/>
	<path fill="#FFFFFF" d="M213.5-191.8h3.1l-0.2,1.5h-3.1L213.5-191.8z"/>
	<path fill="#FFFFFF" d="M224.2-194.5l-0.8,6.6h-1.9l0.8-6.6h-1.8l0.2-1.6h5.5l-0.2,1.6H224.2z"/>
	<path fill="#FFFFFF" d="M231.5-194.5h-2.7l-0.2,1.6h2.6l-0.2,1.6h-2.6l-0.2,1.8h2.7l-0.2,1.6h-4.6l1-8.2h4.5L231.5-194.5z"/>
	<path fill="#FFFFFF" d="M235.3-196.1l-0.8,6.6h2.6l-0.2,1.6h-4.5l1-8.2H235.3z"/>
	<path fill="#FFFFFF" d="M245.8-189.4h-3.1l-0.8,1.5h-2l4.3-8.2h1.7l2.2,8.2h-1.9L245.8-189.4z M245.5-190.9l-0.7-2.9l-1.4,2.9
		H245.5z"/>
	<path fill="#FFFFFF" d="M250.6-196.1l1.4,5.3l2.7-5.3h2.1l-4.5,8.2h-1.3l-2.5-8.2H250.6z"/>
	<path fill="#FFFFFF" d="M259.7-196.1l-1,8.2h-1.9l1-8.2H259.7z"/>
	<path fill="#FFFFFF" d="M262.7-196.1l1.4,5.3l2.7-5.3h2.1l-4.5,8.2h-1.3l-2.5-8.2H262.7z"/>
</g>
<rect x="-10.5" y="-230" fill="#FFFFFF" width="66" height="4"/>
<rect x="7.4" y="-221" fill="#FFFFFF" width="48.1" height="4"/>
<rect x="25.4" y="-213" fill="#FFFFFF" width="30.1" height="4"/>
<rect x="40.5" y="-205" fill="#FFFFFF" width="15" height="4"/>
<rect x="379.8" y="-229.5" fill="#FFFFFF" width="66" height="4"/>
<rect x="379.8" y="-220.5" fill="#FFFFFF" width="48.1" height="4"/>
<rect x="379.8" y="-212.5" fill="#FFFFFF" width="30.1" height="4"/>
<rect x="379.8" y="-204.5" fill="#FFFFFF" width="15" height="4"/>
<polygon id="israel" opacity="0.43" points="194,-78 193.1,-76.1 192.6,-69.5 190.9,-69.4 190.1,-68.4 188.8,-68.1 186,-65.6 
	184.8,-65.5 182.6,-63.3 179.8,-63.1 176.3,-61.4 173.2,-62.4 169.6,-66.3 166.4,-65.9 165,-67.3 164.7,-74.1 163.7,-75.2 
	158.4,-75.4 158,-70.8 157.2,-70.8 156.6,-72.8 150.2,-72.4 150.2,-69.7 146.2,-69.7 146.3,-64.6 142,-64.6 138.7,-65.5 138.3,-75 
	137.6,-76.4 133.5,-74.1 132.1,-65.9 130.1,-65.4 130,-61.4 128.2,-62.1 127.8,-65.4 126,-66.2 125.7,-81.4 121,-84.5 116.2,-83.4 
	116.1,-66.4 111.1,-66 110.2,-63.4 94.7,-64.1 94.5,-66.7 92.2,-67.2 91.7,-73.5 87.7,-73.3 87.4,-64.5 84,-64.5 83.8,-75.4 
	79.9,-75.7 79.6,-80.9 77.3,-83.2 71,-83 70.4,-80.4 67.4,-80 67.1,-67.4 65.2,-67.6 65,-69.9 61.7,-72 61.9,-85.6 60.1,-86.1 
	58.2,-89 53.2,-89 52.8,-87.1 49.6,-86.4 49,-80.1 47.5,-80 47.4,-91.4 41.3,-94.2 35.6,-92 35.8,-80.5 34.2,-80.5 34,-91.8 
	24.4,-96.2 22.6,-94.8 22,-81.5 20.3,-83.9 14.9,-85 14.7,-87.3 6.4,-87.3 6.4,-84.7 4,-84 3.2,-75.4 1.6,-73.7 1.6,-66.6 
	-5.8,-65.5 -6,-60.4 -10.7,-60.6 -13.1,-63.3 -17.8,-62.5 -19.4,-59.5 -24,-59.9 -23.7,-67.7 -29.7,-66.3 -30,-63.7 -32.3,-62 
	-31.4,-72.3 -36.5,-72.2 -36.7,-70 -39.1,-69.8 -39.7,-67.7 -41.9,-67.5 -42.4,-65.1 -44.1,-64.6 -44.1,-59.3 -45.8,-59.7 
	-45.7,-77.6 -49.3,-77.2 -52.2,-70.8 -52.9,-59.9 -53.9,-59.8 -55.3,-65.2 -61.7,-64.2 -62.9,-59.3 -67.8,-59 -66.8,-64.3 
	-76.8,-63.6 -78.8,-57.4 -81.7,-57.4 -82.9,-77.8 -86,-76.8 -87.1,-61.1 -89.6,-60.7 -89.8,-58.1 -92.1,-57.7 -92.3,-56 -94,-56 
	-100.6,-53.4 209.4,-53.4 206.1,-54.6 201.3,-58.5 198.9,-65.3 196.5,-66.7 196.1,-76.5 195.1,-78.1 194.9,-81.3 194.5,-81.5 "/>
<path id="berlin" d="M24.5-106.4c0,0.2,0,0.5,0,0.7c0.1,3.1,0.1,6.3,0.2,9.4c0,0.6,0.1,1.1,0.5,1.7c0.3,0.4,0.1,1.1,0.1,1.6
	c0,0.4,0.1,0.7,0.5,0.9c1.3,0.6,1.5,2.7,0.4,3.9c-0.2,0.3-0.6,0.5-0.7,0.7c-0.1,0.3-0.2,0.6-0.3,1c0,0.2-0.1,0.4-0.1,0.6
	c0.3,5.7,0.6,11.4,1,17.1c0.1,2.5,0.2,4.9,0.3,7.4c0,0.3,0,0.5,0,0.9c0.8-0.1,1.5-0.2,2.2-0.3c-0.1-1.8,0.3-3.6-0.3-5.4
	c0.3-0.4,1-0.8,1.2-1.4c0.2-0.7,0.2-1.5,0.2-2.3c0-0.5,0.3-0.9,0.8-0.9c1.5,0,3.1,0,4.7,0c0.1,1,0.1,1.9,0.2,2.8
	c1.1,0.1,2.2,0.1,3.2,0.2c0.1,0.3,0.1,0.5,0.1,0.7c1.8,0,3.6,0,5.4,0c0.2-1.3,0.5-2.5,0.7-3.8c0-0.2,0.2-0.3,0.3-0.4
	c0.1,0.1,0.3,0.2,0.4,0.4c0.1,0.4,0.1,0.8,0.2,1.3c0.3-0.4,0.6-0.7,0.8-1c2.1-2.3,4.3-2.8,6.6-1.1c0.5,0.4,0.8,0.9,1.2,1.4
	c0.2,0.3,0.5,0.6,0.8,1.1c0.1-0.8,0.1-1.3,0.1-1.8c0-0.1,0.2-0.2,0.3-0.4c0.1,0.1,0.3,0.2,0.3,0.3c0.3,1.3,0.6,2.5,0.9,3.9
	c1.5,0,3.3,0,5,0c0.3-1.1,1.3-0.7,2.1-0.9c0-0.8,0-1.7,0-2.7c1,0,1.9,0,2.9,0c1.1,0,2.3-0.1,3.4-0.1c0.3,0,0.6,0.2,1,0.2
	c-0.5,1.3-0.2,2.3,0.2,3.5c0.2-0.3,0.3-0.6,0.4-0.8c0.2,0.7,0.4,1.2,0.6,1.9c-0.1,0.4-0.2,0.9-0.2,1.5c-0.1,1.3-0.1,2.6-0.2,3.9
	c0.7,0,1.3,0,2,0c0-1.3,0.1-2.6,0-3.9c-0.1-1.3-0.5-2.5-0.8-3.8c0.3-0.1,0.8-0.2,1.3-0.4c-0.1-0.5-0.3-1-0.4-1.6c2,0,4,0,5.9,0
	c0.4,0,0.9,0,1.3,0c0.3,0,0.7,0.1,0.9-0.4c0-0.1,0.3-0.1,0.5-0.1c0.3,0,0.7,0,0.8,0c-0.1-0.8-0.2-1.5-0.4-2.3
	c0.5,0.3,0.9,0.6,1.4,0.8c0.1-0.4,0.2-0.7,0.4-1.3c0.5,0.3,0.9,0.6,1.4,0.9c0.1-0.1,0.3-0.4,0.5-0.7c0.1,0.6,0.2,1,0.3,1.5
	c0.5-0.5,0.9-0.9,1.3-1.3c0.2,0.8,0.2,0.8-1,2.3c0.4,0,0.8,0,1.2,0.1c0.3,0.1,0.6,0.3,0.9,0.4c0.2,0.1,0.5,0.2,0.8,0.2
	c1.9,0,3.9,0,5.8,0c0.4,0,0.7,0,1.1,0c-0.3,1.6-0.3,1.6,1.2,1.9c-1.6,2.2-1.1,4.7-1.1,7.2c0.4,0,0.7,0,1.1,0c0-1.7,0-3.5,0-5.3
	c1.3,0,2.5,0,3.8,0c0,0.6,0,1.3,0,1.9c1.1,0.2,1.2,0.2,1.3-0.8c0.1-1.4,0.1-2.8,0-4.3c-0.1-1.5-0.1-3,0.4-4.5
	c0.2-0.7,0.3-1.5-0.1-2.3c-0.1-0.2-0.1-0.8,0.1-1c0.6-0.7,0.4-1.6,0.6-2.5c0-0.1-0.1-0.2-0.1-0.2c-0.5-0.4-0.9-0.9-1.5-1.4
	c0.3-0.2,0.4-0.3,0.4-0.3c0.5,0.4,0.8,0.7,1.2,1c0.1,0,0.1-0.1,0.2-0.1c0-0.4-0.3-1,0.5-0.9c0,0.2,0.1,0.4,0.1,0.7
	c0.3,0,0.6,0.1,1.2,0.1c-0.3,0.3-0.5,0.5-0.8,0.6c-0.4,0.1-0.5,0.4-0.5,0.8c0,0.4-0.1,0.7-0.1,1.1c0,0.5-0.1,0.9,0.5,1.2
	c0.2,0.1,0.3,0.8,0.1,1.1c-0.4,0.7-0.4,1.5-0.2,2.2c0.5,1.3,0.6,2.7,0.5,4.1c-0.1,1.5-0.1,3.1-0.1,4.6c0,0.6,0.3,0.9,1,1
	c0.5,0.1,0.9,0.2,1.2,0.3c-0.1,1.1-0.2,2.1-0.3,3.1c0.9,0,1.6,0,2.3,0c0-0.6,0-1.1,0-1.7c0.7,0,1.4,0,2.2,0c0-0.4,0-0.6,0-0.9
	c0-4.1,0-8.2,0-12.4c0-0.4,0.2-0.8,0.5-1c1.1-1.1,2.3-2.2,3.6-3.4c0,0.5-0.1,0.7,0,1c0.1,0.3,0.3,0.5,0.4,0.7
	c0.1,0.2,0.3,0.5,0.3,0.7c0,4,0,8,0,12c0,1.8,0,3.6,0,5.4c0.5,0,0.9,0,1.4,0c0-0.3,0-0.6,0-0.8c0-5.1,0-10.2,0-15.3
	c0-0.9,0.3-1.7,0.9-2.3c1.1-1.1,2.4-1.8,3.9-2.3c0,0.8,0.6,0.7,1.1,0.7c0,0.5,0.1,0.9,0.1,1.3c0.3,0,0.5,0.1,0.9,0.1
	c0,5.7,0,11.4,0,17.1c0.8,0,1.5,0,2.2,0c0-0.9,0-1.8,0-2.8c0-0.2,0.2-0.5,0.3-0.7c0.2-0.3,0.4-0.5,0.5-0.8c0.4-0.9,0.8-1.2,1.6-1.1
	c1,0.1,1.6,0.6,1.8,1.4c0,0.1,0,0.3,0.1,0.5c0.2,0,0.4,0.1,0.6,0.2c0,0.1,0.1,0.2,0.1,0.3c0,1.2,0,2.4,0,3.6c0,1.2,0,1.2,1.3,1.4
	c0-0.6,0-1.2,0-1.9c0.7,0,1.3,0,2,0c0-0.3,0.1-0.6,0.1-0.9c0.9,0,1.7,0,2.6,0c0,1.7,0,3.4,0,5.1c0.6,0,1.2,0,1.8,0
	c0-0.9,0-1.9,0-2.7c1.4-0.3,1.9-0.2,2.1,0.6c0.7,0,1.4,0,2.1,0c0.3,0,0.6,0,0.9,0c1.4,0.2,1.5,0.3,1.5,1.7c0,0.9,0,1.8,0,2.7
	c0,0,0,0.1,0.1,0.2c0.2,0,0.5,0,0.8,0c0-0.3,0.1-0.5,0.1-0.8c0.9,0,1.9,0,2.8,0c0,0.6,0,1.2,0,1.9c0.5,0,0.9,0,1.3,0.1
	c0,0.3,0,0.5,0.1,0.7c-56.7,0-113.3,0-170,0c0-1,0-1.8,0-2.6c0-0.1,0.1-0.3,0.1-0.3c1-0.3,2.1-0.5,3.2-0.8c0,0.8,0,1.5,0,2.1
	c0.4,0,0.7,0,1.1,0c0-1.1,0-2.3,0-3.5c0.3-0.1,0.6-0.1,0.9-0.1c0-0.6,0-1.2,0-1.9c1.5,0,3,0,4.5,0c0,0.9,0,1.8,0,2.8
	c0.6,0,1.2,0,1.8,0c0-1.7,0-3.3,0-5c1.5-0.4,2.7,0.6,4,0.8c0,0.8,0,1.7,0,2.6c1.3,0,1.3,0,1.3-1.2c0-3.2,0-6.4,0-9.5
	c0-0.3,0-0.5,0-0.8c1.5,0,2.8,0,4.3,0c0,1.8,0,3.5,0,5.2c0.1,0,0.2,0,0.3,0c0.1-0.3,0.2-0.6,0.2-0.9c0-2.2,0-4.3,0-6.5
	c0-0.3-0.1-0.7,0.4-0.9c0.1,0,0.1-0.2,0.1-0.3c0-0.6-0.1-1.1,0.7-1.2c0.1,0,0.3-0.6,0.3-0.9c0.1-0.7,0.3-1.4,1.3-1.4
	c0.2,0,0.3-0.4,0.6-0.7c0.6-0.1,1.1,0.3,1.2,1.1c0.2,1.6,0.6,3.1,0.8,4.7c0.1,0.4,0,0.8-0.1,1.3c0,0.2-0.1,0.3-0.1,0.5
	c0,1.4-0.1,2.8,0.1,4.2c0.2,1.5,0.9,3,1.3,4.4c0.3-2.5,0.6-5.1,0.9-7.6c0.1,0,0.2,0,0.4,0c0.4,3.1,0.9,6.2,1.3,9.4
	c0.1,0,0.2,0.1,0.3,0.1c0.1-0.2,0.4-0.3,0.4-0.5c0.1-0.5-0.1-1.2,0.2-1.4c0.7-0.4,1.5-0.6,2.3-0.9c0.3-0.1,0.7,0,1.1,0
	c0,0.7,0,1.4,0,2.1c0.5,0.1,1.4-0.5,1.4-0.9c-0.1-1.9,0.3-3.7,1-5.5c0.1-0.4,0.2-0.8,0.4-1.3c0.2,0.7,0.5,1.4,0.7,2.1
	c0.2,0.8,0.4,1.6,0.5,2.4c0.1,0.8,0.2,1.6,0.2,2.4c0.3,0.3,0.5,0.7,0.8,1c0.3-8.9,0.6-17.7,0.8-26.6c-2.2-1.1-2.4-3.2-0.6-4.7
	c0.8-0.6,0.4-1.5,0.3-2.3c0-0.1-0.1-0.2-0.1-0.3c0.2,0,0.4-0.1,0.5-0.1c0.7-1.8,0.4-3.6,0.4-5.3c0-1.8,0-3.6,0-5.4
	c0-0.3,0-0.5,0-0.8C24.3-106.4,24.4-106.4,24.5-106.4z"/>
<g>
	<path fill="#E96C77" d="M39-116v31.1H30V-116h-8.4v-7.5h25.7v7.5H39z"/>
</g>
<g>
	<path fill="#E96C77" d="M11.8-116v31.1H2.9V-116h-8.4v-7.5h25.7v7.5H11.8z"/>
</g>
<g>
	<path fill="#E96C77" d="M65.9-116v31.1H57V-116h-8.4v-7.5h25.7v7.5H65.9z"/>
</g>
<g>
	<path fill="#CCCCCC" d="M-118.2,36.4v7.8h3v1.9h-5.3v-9.8H-118.2z"/>
	<path fill="#CCCCCC" d="M-105.6,37.6c0.9,0.9,1.5,2.2,1.5,3.7c0,1.3-0.5,2.6-1.5,3.7c-0.9,0.9-2.1,1.4-3.8,1.4
		c-1.8,0-3.1-0.7-3.8-1.4c-0.9-0.9-1.5-2.2-1.5-3.6c0-1.4,0.6-2.8,1.5-3.7c0.7-0.7,1.9-1.4,3.8-1.4
		C-107.8,36.2-106.5,36.7-105.6,37.6z M-111.5,39.1c-0.4,0.4-0.9,1.1-0.9,2.2c0,0.9,0.3,1.6,0.9,2.2c0.6,0.6,1.3,0.8,2.1,0.8
		c1,0,1.7-0.4,2.2-0.8c0.4-0.4,0.8-1.1,0.8-2.2c0-1-0.4-1.8-0.8-2.2c-0.5-0.5-1.3-0.8-2.1-0.8C-110.2,38.3-110.9,38.6-111.5,39.1z"
		/>
	<path fill="#CCCCCC" d="M-97.7,40.9h4.8V41c0,1.2-0.4,3-1.5,4.1c-1.1,1.1-2.3,1.3-3.5,1.3c-1.2,0-2.4-0.2-3.6-1.4
		c-0.6-0.6-1.4-1.8-1.4-3.7c0-1.6,0.6-2.9,1.4-3.7c1.2-1.2,2.7-1.4,3.8-1.4c0.8,0,1.8,0.1,2.7,0.7c0.7,0.4,1.2,1.1,1.6,1.7l-2,1.1
		c-0.2-0.4-0.5-0.8-0.9-1.1c-0.4-0.3-0.9-0.5-1.5-0.5c-0.9,0-1.5,0.3-2,0.8c-0.5,0.6-0.8,1.4-0.8,2.3c0,1.1,0.4,1.8,0.8,2.2
		c0.6,0.6,1.2,0.8,2,0.8c1,0,1.5-0.3,1.7-0.5c0.1-0.1,0.5-0.4,0.7-1.2h-2.4V40.9z"/>
	<path fill="#CCCCCC" d="M-82.5,37.6c0.9,0.9,1.5,2.2,1.5,3.7c0,1.3-0.5,2.6-1.5,3.7c-0.9,0.9-2.1,1.4-3.8,1.4
		c-1.8,0-3.1-0.7-3.8-1.4c-0.9-0.9-1.5-2.2-1.5-3.6c0-1.4,0.6-2.8,1.5-3.7c0.7-0.7,1.9-1.4,3.8-1.4C-84.8,36.2-83.5,36.7-82.5,37.6z
		 M-88.4,39.1c-0.4,0.4-0.9,1.1-0.9,2.2c0,0.9,0.3,1.6,0.9,2.2c0.6,0.6,1.3,0.8,2.1,0.8c1,0,1.7-0.4,2.2-0.8
		c0.4-0.4,0.8-1.1,0.8-2.2c0-1-0.4-1.8-0.8-2.2c-0.5-0.5-1.3-0.8-2.1-0.8C-87.1,38.3-87.9,38.6-88.4,39.1z"/>
</g>
<g>
	<path fill="#FFFFFF" d="M42.4,42.3H13c-7.2,0-13-5.8-13-13V13C0,5.8,5.8,0,13,0h29.4c7.2,0,13,5.8,13,13v16.3
		C55.4,36.5,49.6,42.3,42.4,42.3z M13,2C6.9,2,2,6.9,2,13v16.3c0,6.1,4.9,11,11,11h29.4c6.1,0,11-4.9,11-11V13c0-6.1-4.9-11-11-11
		H13z"/>
</g>
<rect x="9.1" y="9" fill="#FFFFFF" width="37.2" height="3.5"/>
<rect x="9.1" y="18.7" fill="#FFFFFF" width="37.2" height="3.5"/>
<rect x="9.1" y="28.2" fill="#FFFFFF" width="37.2" height="3.5"/>
</svg>
