<?xml version="1.0" encoding="utf-8"?>
<!-- Generator: Adobe Illustrator 18.1.1, SVG Export Plug-In . SVG Version: 6.00 Build 0)  -->
<svg version="1.1" id="Layer_1" xmlns="http://www.w3.org/2000/svg" xmlns:xlink="http://www.w3.org/1999/xlink" x="0px" y="0px"
	 viewBox="0 0 28.8 28.8" enable-background="new 0 0 28.8 28.8" xml:space="preserve">
<rect x="-26.8" y="-235.2" fill="#595D7A" width="130.5" height="126"/>
<text transform="matrix(1 0 0 1 229.0589 -118.524)"><tspan x="0" y="0" fill="#E96C77" font-family="'FuturaPT-Heavy'" font-size="35.2696">T</tspan><tspan x="16.2" y="0" fill="#FFFFFF" font-family="'FuturaPT-Heavy'" font-size="35.2696">WIN</tspan><tspan x="90.4" y="0" fill="#E96C77" font-family="'FuturaPT-Heavy'" font-size="35.2696">T</tspan><tspan x="106.7" y="0" fill="#FFFFFF" font-family="'FuturaPT-Heavy'" font-size="35.2696">ECH</tspan><tspan x="171.1" y="0" fill="#E96C77" font-family="'FuturaPT-Heavy'" font-size="35.2696">T</tspan><tspan x="187.3" y="0" fill="#FFFFFF" font-family="'FuturaPT-Heavy'" font-size="35.2696">OWNS</tspan></text>
<text transform="matrix(1 0 0 1 380.5033 -103.4273)" fill="#FFFFFF" font-family="'FuturaPT-HeavyObl'" font-size="17.9434">BERLIN - TEL AVIV</text>
<g>
	<path fill="#E96C77" d="M79.9-293.7v24.2h-6.9v-24.2h-6.5v-5.8h20v5.8H79.9z"/>
	<path fill="#FFFFFF" d="M92.5-293l5,15.6l5-15.6h3.7l5,15.6l5-15.6h5.6l-8,23.5h-4.6l-4.9-14.3l-4.9,14.3h-4.6l-8-23.5H92.5z"/>
	<path fill="#FFFFFF" d="M130.2-293v23.5h-5.4V-293H130.2z"/>
	<path fill="#FFFFFF" d="M135.5-269.5V-293h4.7l12.8,15.2V-293h5.4v23.5h-4.7l-12.8-15.2v15.2H135.5z"/>
	<path fill="#E96C77" d="M174.8-293.7v24.2h-6.9v-24.2h-6.5v-5.8h20v5.8H174.8z"/>
	<path fill="#FFFFFF" d="M197.5-288.5h-7.9v4.5h7.5v4.6h-7.5v5.2h7.9v4.6h-13.3V-293h13.3V-288.5z"/>
	<path fill="#FFFFFF" d="M218.9-270.3c-2.1,1.1-3.8,1.3-5.2,1.3c-4.3,0-7.3-1.5-9.2-3.4c-2.1-2-3.7-5.1-3.7-8.9
		c0-3.7,1.6-6.8,3.7-8.9c2.1-2,5.1-3.4,8.8-3.4c1.6,0,3.3,0.3,5.6,1.3v6.3c-1.2-1.3-3-2.5-5.5-2.5c-2,0-3.6,0.6-4.8,1.8
		c-1.3,1.3-2.2,3.2-2.2,5.4c0,2.4,1,4.2,2,5.2c0.5,0.5,2.2,2,5.1,2c1.4,0,3.3-0.4,5.4-2.4V-270.3z"/>
	<path fill="#FFFFFF" d="M228.7-284.1h9.4v-9h5.4v23.5h-5.4v-10h-9.4v10h-5.4V-293h5.4V-284.1z"/>
	<path fill="#E96C77" d="M259.9-293.7v24.2H253v-24.2h-6.5v-5.8h20v5.8H259.9z"/>
	<path fill="#FFFFFF" d="M290.2-290.2c2.2,2.2,3.7,5.3,3.7,8.9c0,3.1-1.1,6.3-3.7,8.8c-2.2,2.1-5.1,3.5-9.1,3.5
		c-4.4,0-7.4-1.8-9.2-3.5c-2.3-2.1-3.7-5.3-3.7-8.7c0-3.4,1.5-6.8,3.6-8.9c1.6-1.6,4.5-3.5,9.2-3.5
		C284.8-293.6,287.9-292.4,290.2-290.2z M275.9-286.6c-1,1-2.1,2.7-2.1,5.3c0,2.2,0.7,3.9,2.2,5.3c1.5,1.4,3.2,1.9,5,1.9
		c2.4,0,4.1-0.9,5.2-2c0.9-0.9,2-2.5,2-5.3c0-2.4-1-4.2-2-5.3c-1.2-1.1-3-2-5.2-2C279-288.6,277.2-287.8,275.9-286.6z"/>
	<path fill="#FFFFFF" d="M300.1-293l5,15.6l5-15.6h3.7l5,15.6l5-15.6h5.6l-8,23.5h-4.6l-4.9-14.3l-4.9,14.3h-4.6l-8-23.5H300.1z"/>
	<path fill="#FFFFFF" d="M332.3-269.5V-293h4.7l12.8,15.2V-293h5.4v23.5h-4.7l-12.8-15.2v15.2H332.3z"/>
	<path fill="#FFFFFF" d="M372.5-287.3c-1.8-1.6-3.3-1.7-4-1.7c-0.7,0-1.7,0.1-2.3,0.8c-0.4,0.4-0.6,0.9-0.6,1.5c0,0.6,0.2,1,0.5,1.3
		c0.6,0.5,1.4,0.7,3,1.3l1.8,0.7c1,0.4,2.3,0.9,3.2,1.8c1.4,1.3,1.7,3,1.7,4.4c0,2.4-0.8,4.5-2.1,5.8c-2.1,2.2-5.1,2.4-6.7,2.4
		c-1.7,0-3.2-0.2-4.7-1c-1.2-0.6-2.6-1.7-3.5-2.6l2.8-3.9c0.6,0.6,1.6,1.4,2.2,1.8c0.9,0.6,1.9,0.8,3,0.8c0.7,0,1.7-0.1,2.5-0.8
		c0.5-0.4,0.8-1,0.8-1.9c0-0.8-0.3-1.3-0.8-1.7c-0.6-0.5-2.1-1.1-2.8-1.3l-1.9-0.7c-1.1-0.4-2.4-0.9-3.3-1.9c-1.2-1.3-1.4-3-1.4-4.1
		c0-2.1,0.6-3.8,2-5.3c1.7-1.7,3.6-2.2,5.8-2.2c1.6,0,4.2,0.3,7,2.3L372.5-287.3z"/>
</g>
<g>
	<path fill="#FFFFFF" d="M176.1-265.1h2.6c0.6,0,1.3,0.1,1.8,0.6c0.3,0.3,0.5,0.8,0.5,1.4c0,0.5-0.1,0.9-0.4,1.3
		c-0.3,0.4-0.6,0.5-0.9,0.6c0.4,0.1,0.7,0.3,0.9,0.5c0.4,0.4,0.5,0.8,0.5,1.3c0,0.9-0.3,1.4-0.7,1.8c-0.7,0.7-1.6,0.8-2.5,0.8h-3
		L176.1-265.1z M177.2-258.4h0.7c0.4,0,0.9,0,1.2-0.3c0.1-0.1,0.3-0.3,0.3-0.8c0-0.2,0-0.4-0.2-0.6c-0.3-0.3-0.8-0.3-1-0.3h-0.7
		L177.2-258.4z M177.6-261.8h0.4c0.3,0,0.8,0,1-0.3c0.2-0.2,0.3-0.5,0.3-0.7c0-0.3-0.1-0.5-0.3-0.6c-0.2-0.2-0.6-0.2-0.8-0.2h-0.4
		L177.6-261.8z"/>
	<path fill="#FFFFFF" d="M187.7-263.5h-2.7l-0.2,1.6h2.6l-0.2,1.6h-2.6l-0.2,1.8h2.7l-0.2,1.6h-4.6l1-8.2h4.5L187.7-263.5z"/>
	<path fill="#FFFFFF" d="M192.2-265.1c0.8,0,1.6,0.1,2.2,0.7c0.3,0.3,0.6,0.8,0.6,1.7c0,0.8-0.3,1.4-0.7,1.8
		c-0.4,0.3-0.8,0.6-1.3,0.7l2.1,3.3h-2.2l-2-3.2l-0.4,3.2h-1.9l1-8.2H192.2z M191-261.4h0.5c0.3,0,0.8,0,1.1-0.3
		c0.3-0.3,0.4-0.6,0.4-1c0-0.3-0.1-0.6-0.4-0.8c-0.2-0.2-0.6-0.2-1-0.2h-0.3L191-261.4z"/>
	<path fill="#FFFFFF" d="M199-265.1l-0.8,6.6h2.6l-0.2,1.6h-4.5l1-8.2H199z"/>
	<path fill="#FFFFFF" d="M204.5-265.1l-1,8.2h-1.9l1-8.2H204.5z"/>
	<path fill="#FFFFFF" d="M205.3-256.9l1-8.2h1.6l3.8,5.3l0.7-5.3h1.9l-1,8.2h-1.6l-3.8-5.4l-0.7,5.4H205.3z"/>
	<path fill="#FFFFFF" d="M218.2-260.8h3.1l-0.2,1.5H218L218.2-260.8z"/>
	<path fill="#FFFFFF" d="M228.9-263.5l-0.8,6.6h-1.9l0.8-6.6h-1.8l0.2-1.6h5.5l-0.2,1.6H228.9z"/>
	<path fill="#FFFFFF" d="M236.2-263.5h-2.7l-0.2,1.6h2.6l-0.2,1.6h-2.6l-0.2,1.8h2.7l-0.2,1.6h-4.6l1-8.2h4.5L236.2-263.5z"/>
	<path fill="#FFFFFF" d="M240-265.1l-0.8,6.6h2.6l-0.2,1.6h-4.5l1-8.2H240z"/>
	<path fill="#FFFFFF" d="M250.5-258.4h-3.1l-0.8,1.5h-2l4.3-8.2h1.7l2.2,8.2h-1.9L250.5-258.4z M250.2-259.9l-0.7-2.9l-1.4,2.9
		H250.2z"/>
	<path fill="#FFFFFF" d="M255.3-265.1l1.4,5.3l2.7-5.3h2.1l-4.5,8.2h-1.3l-2.5-8.2H255.3z"/>
	<path fill="#FFFFFF" d="M264.4-265.1l-1,8.2h-1.9l1-8.2H264.4z"/>
	<path fill="#FFFFFF" d="M267.4-265.1l1.4,5.3l2.7-5.3h2.1l-4.5,8.2h-1.3l-2.5-8.2H267.4z"/>
</g>
<rect x="-5.8" y="-299" fill="#FFFFFF" width="66" height="4"/>
<rect x="12.1" y="-290" fill="#FFFFFF" width="48.1" height="4"/>
<rect x="30.1" y="-282" fill="#FFFFFF" width="30.1" height="4"/>
<rect x="45.2" y="-274" fill="#FFFFFF" width="15" height="4"/>
<rect x="384.5" y="-298.5" fill="#FFFFFF" width="66" height="4"/>
<rect x="384.5" y="-289.5" fill="#FFFFFF" width="48.1" height="4"/>
<rect x="384.5" y="-281.5" fill="#FFFFFF" width="30.1" height="4"/>
<rect x="384.5" y="-273.5" fill="#FFFFFF" width="15" height="4"/>
<polygon id="israel" opacity="0.43" points="198.7,-147 197.8,-145.1 197.3,-138.5 195.6,-138.4 194.8,-137.4 193.5,-137.1 
	190.7,-134.6 189.5,-134.5 187.3,-132.3 184.5,-132.1 181,-130.4 177.9,-131.4 174.3,-135.3 171.1,-134.9 169.7,-136.3 
	169.4,-143.1 168.4,-144.2 163.1,-144.5 162.7,-139.8 161.9,-139.8 161.3,-141.8 154.9,-141.4 154.9,-138.7 150.9,-138.7 
	151,-133.7 146.7,-133.6 143.4,-134.5 143,-144 142.3,-145.4 138.3,-143.1 136.9,-134.9 134.8,-134.4 134.7,-130.4 132.9,-131.1 
	132.5,-134.4 130.7,-135.2 130.4,-150.4 125.7,-153.5 120.9,-152.4 120.8,-135.4 115.8,-135.1 114.9,-132.4 99.5,-133.1 
	99.2,-135.7 96.9,-136.2 96.4,-142.5 92.4,-142.3 92.1,-133.5 88.7,-133.5 88.5,-144.5 84.6,-144.7 84.3,-149.9 82,-152.2 
	75.7,-152 75.2,-149.4 72.1,-149 71.8,-136.4 69.9,-136.6 69.7,-138.9 66.4,-141 66.6,-154.6 64.8,-155.1 62.9,-158 57.9,-158.1 
	57.5,-156.1 54.3,-155.4 53.7,-149.1 52.2,-149 52.1,-160.4 46,-163.2 40.3,-161 40.5,-149.5 38.9,-149.5 38.7,-160.9 29.1,-165.2 
	27.3,-163.8 26.7,-150.6 25,-153 19.6,-154 19.4,-156.3 11.1,-156.3 11.1,-153.8 8.7,-153 7.9,-144.5 6.3,-142.7 6.3,-135.6 
	-1.1,-134.5 -1.3,-129.4 -6,-129.6 -8.4,-132.3 -13.1,-131.5 -14.7,-128.5 -19.3,-128.9 -19,-136.7 -25,-135.3 -25.3,-132.7 
	-27.6,-131 -26.7,-141.3 -31.8,-141.2 -32,-139 -34.4,-138.8 -35,-136.7 -37.2,-136.5 -37.7,-134.1 -39.4,-133.6 -39.4,-128.3 
	-41.1,-128.7 -41,-146.6 -44.6,-146.2 -47.5,-139.8 -48.2,-128.9 -49.2,-128.8 -50.6,-134.2 -57,-133.2 -58.2,-128.3 -63.1,-128 
	-62.1,-133.3 -72.1,-132.6 -74.1,-126.4 -77,-126.4 -78.2,-146.8 -81.3,-145.9 -82.4,-130.1 -84.9,-129.7 -85.1,-127.2 
	-87.4,-126.8 -87.6,-125 -89.3,-125 -95.9,-122.4 214.1,-122.4 210.8,-123.6 206,-127.5 203.6,-134.3 201.2,-135.7 200.8,-145.5 
	199.8,-147.1 199.6,-150.3 199.2,-150.6 "/>
<path id="berlin" d="M29.2-175.4c0,0.2,0,0.5,0,0.7c0.1,3.1,0.1,6.3,0.2,9.4c0,0.6,0.1,1.1,0.5,1.7c0.3,0.4,0.1,1.1,0.1,1.6
	c0,0.4,0.1,0.7,0.5,0.9c1.3,0.6,1.5,2.7,0.4,3.9c-0.2,0.3-0.6,0.5-0.7,0.7c-0.1,0.3-0.2,0.6-0.3,1c0,0.2-0.1,0.4-0.1,0.6
	c0.3,5.7,0.6,11.4,1,17.1c0.1,2.5,0.2,4.9,0.3,7.4c0,0.3,0,0.5,0,0.9c0.8-0.1,1.5-0.2,2.2-0.3c-0.1-1.8,0.3-3.6-0.3-5.4
	c0.3-0.4,1-0.8,1.2-1.4c0.2-0.7,0.2-1.5,0.2-2.3c0-0.5,0.3-0.9,0.8-0.9c1.5,0,3.1,0,4.7,0c0.1,1,0.1,1.9,0.2,2.8
	c1.1,0.1,2.2,0.1,3.2,0.2c0.1,0.3,0.1,0.5,0.1,0.7c1.8,0,3.6,0,5.4,0c0.2-1.3,0.5-2.5,0.7-3.8c0-0.2,0.2-0.3,0.3-0.4
	c0.1,0.1,0.3,0.2,0.4,0.4c0.1,0.4,0.1,0.8,0.2,1.3c0.3-0.4,0.6-0.7,0.8-1c2.1-2.3,4.3-2.8,6.6-1.1c0.5,0.4,0.8,0.9,1.2,1.4
	c0.2,0.3,0.5,0.6,0.8,1.1c0.1-0.8,0.1-1.3,0.1-1.8c0-0.1,0.2-0.2,0.3-0.4c0.1,0.1,0.3,0.2,0.3,0.3c0.3,1.3,0.6,2.5,0.9,3.9
	c1.5,0,3.3,0,5,0c0.3-1.1,1.3-0.7,2.1-0.9c0-0.8,0-1.7,0-2.7c1,0,1.9,0,2.9,0c1.1,0,2.3-0.1,3.4-0.1c0.3,0,0.6,0.2,1,0.2
	c-0.5,1.3-0.2,2.3,0.2,3.5c0.2-0.3,0.3-0.6,0.4-0.8c0.2,0.7,0.4,1.2,0.6,1.9c-0.1,0.4-0.2,0.9-0.2,1.5c-0.1,1.3-0.1,2.6-0.2,3.9
	c0.7,0,1.3,0,2,0c0-1.3,0.1-2.6,0-3.9c-0.1-1.3-0.5-2.5-0.8-3.8c0.3-0.1,0.8-0.2,1.3-0.4c-0.1-0.5-0.3-1-0.4-1.6c2,0,4,0,5.9,0
	c0.4,0,0.9,0,1.3,0c0.3,0,0.7,0.1,0.9-0.4c0-0.1,0.3-0.1,0.5-0.1c0.3,0,0.7,0,0.8,0c-0.1-0.8-0.2-1.5-0.4-2.3
	c0.5,0.3,0.9,0.6,1.4,0.8c0.1-0.4,0.2-0.7,0.4-1.3c0.5,0.3,0.9,0.6,1.4,0.9c0.1-0.1,0.3-0.4,0.5-0.7c0.1,0.6,0.2,1,0.3,1.5
	c0.5-0.5,0.9-0.9,1.3-1.3c0.2,0.8,0.2,0.8-1,2.3c0.4,0,0.8,0,1.2,0.1c0.3,0.1,0.6,0.3,0.9,0.4c0.2,0.1,0.5,0.2,0.8,0.2
	c1.9,0,3.9,0,5.8,0c0.4,0,0.7,0,1.1,0c-0.3,1.6-0.3,1.6,1.2,1.9c-1.6,2.2-1.1,4.7-1.1,7.2c0.4,0,0.7,0,1.1,0c0-1.7,0-3.5,0-5.3
	c1.3,0,2.5,0,3.8,0c0,0.6,0,1.3,0,1.9c1.1,0.2,1.2,0.2,1.3-0.8c0.1-1.4,0.1-2.8,0-4.3c-0.1-1.5-0.1-3,0.4-4.5
	c0.2-0.7,0.3-1.5-0.1-2.3c-0.1-0.2-0.1-0.8,0.1-1c0.6-0.7,0.4-1.6,0.6-2.5c0-0.1-0.1-0.2-0.1-0.2c-0.5-0.4-0.9-0.9-1.5-1.4
	c0.3-0.2,0.4-0.3,0.4-0.3c0.5,0.4,0.8,0.7,1.2,1c0.1,0,0.1-0.1,0.2-0.1c0-0.4-0.3-1,0.5-0.9c0,0.2,0.1,0.4,0.1,0.7
	c0.3,0,0.6,0.1,1.2,0.1c-0.3,0.3-0.5,0.5-0.8,0.6c-0.4,0.1-0.5,0.4-0.5,0.8c0,0.4-0.1,0.7-0.1,1.1c0,0.5-0.1,0.9,0.5,1.2
	c0.2,0.1,0.3,0.8,0.1,1.1c-0.4,0.7-0.4,1.5-0.2,2.2c0.5,1.3,0.6,2.7,0.5,4.1c-0.1,1.5-0.1,3.1-0.1,4.6c0,0.6,0.3,0.9,1,1
	c0.5,0.1,0.9,0.2,1.2,0.3c-0.1,1.1-0.2,2.1-0.3,3.1c0.9,0,1.6,0,2.3,0c0-0.6,0-1.1,0-1.7c0.7,0,1.4,0,2.2,0c0-0.4,0-0.6,0-0.9
	c0-4.1,0-8.2,0-12.4c0-0.4,0.2-0.8,0.5-1c1.1-1.1,2.3-2.2,3.6-3.4c0,0.5-0.1,0.7,0,1c0.1,0.3,0.3,0.5,0.4,0.7
	c0.1,0.2,0.3,0.5,0.3,0.7c0,4,0,8,0,12c0,1.8,0,3.6,0,5.4c0.5,0,0.9,0,1.4,0c0-0.3,0-0.6,0-0.8c0-5.1,0-10.2,0-15.3
	c0-0.9,0.3-1.7,0.9-2.3c1.1-1.1,2.4-1.8,3.9-2.3c0,0.8,0.6,0.7,1.1,0.7c0,0.5,0.1,0.9,0.1,1.3c0.3,0,0.5,0.1,0.9,0.1
	c0,5.7,0,11.4,0,17.1c0.8,0,1.5,0,2.2,0c0-0.9,0-1.8,0-2.8c0-0.2,0.2-0.5,0.3-0.7c0.2-0.3,0.4-0.5,0.5-0.8c0.4-0.9,0.8-1.2,1.6-1.1
	c1,0.1,1.6,0.6,1.8,1.4c0,0.1,0,0.3,0.1,0.5c0.2,0,0.4,0.1,0.6,0.2c0,0.1,0.1,0.2,0.1,0.3c0,1.2,0,2.4,0,3.6c0,1.2,0,1.2,1.3,1.4
	c0-0.6,0-1.2,0-1.9c0.7,0,1.3,0,2,0c0-0.3,0.1-0.6,0.1-0.9c0.9,0,1.7,0,2.6,0c0,1.7,0,3.4,0,5.1c0.6,0,1.2,0,1.8,0
	c0-0.9,0-1.9,0-2.7c1.4-0.3,1.9-0.2,2.1,0.6c0.7,0,1.4,0,2.1,0c0.3,0,0.6,0,0.9,0c1.4,0.2,1.5,0.3,1.5,1.7c0,0.9,0,1.8,0,2.7
	c0,0,0,0.1,0.1,0.2c0.2,0,0.5,0,0.8,0c0-0.3,0.1-0.5,0.1-0.8c0.9,0,1.9,0,2.8,0c0,0.6,0,1.2,0,1.9c0.5,0,0.9,0,1.3,0.1
	c0,0.3,0,0.5,0.1,0.7c-56.7,0-113.3,0-170,0c0-1,0-1.8,0-2.6c0-0.1,0.1-0.3,0.1-0.3c1-0.3,2.1-0.5,3.2-0.8c0,0.8,0,1.5,0,2.1
	c0.4,0,0.7,0,1.1,0c0-1.1,0-2.3,0-3.5c0.3-0.1,0.6-0.1,0.9-0.1c0-0.6,0-1.2,0-1.9c1.5,0,3,0,4.5,0c0,0.9,0,1.8,0,2.8
	c0.6,0,1.2,0,1.8,0c0-1.7,0-3.3,0-5c1.5-0.4,2.7,0.6,4,0.8c0,0.8,0,1.7,0,2.6c1.3,0,1.3,0,1.3-1.2c0-3.2,0-6.4,0-9.5
	c0-0.3,0-0.5,0-0.8c1.5,0,2.8,0,4.3,0c0,1.8,0,3.5,0,5.2c0.1,0,0.2,0,0.3,0c0.1-0.3,0.2-0.6,0.2-0.9c0-2.2,0-4.3,0-6.5
	c0-0.3-0.1-0.7,0.4-0.9c0.1,0,0.1-0.2,0.1-0.3c0-0.6-0.1-1.1,0.7-1.2c0.1,0,0.3-0.6,0.3-0.9c0.1-0.7,0.3-1.4,1.3-1.4
	c0.2,0,0.3-0.4,0.6-0.7c0.6-0.1,1.1,0.3,1.2,1.1c0.2,1.6,0.6,3.1,0.8,4.7c0.1,0.4,0,0.8-0.1,1.3c0,0.2-0.1,0.3-0.1,0.5
	c0,1.4-0.1,2.8,0.1,4.2c0.2,1.5,0.9,3,1.3,4.4c0.3-2.5,0.6-5.1,0.9-7.6c0.1,0,0.2,0,0.4,0c0.4,3.1,0.9,6.2,1.3,9.4
	c0.1,0,0.2,0.1,0.3,0.1c0.1-0.2,0.4-0.3,0.4-0.5c0.1-0.5-0.1-1.2,0.2-1.4c0.7-0.4,1.5-0.6,2.3-0.9c0.3-0.1,0.7,0,1.1,0
	c0,0.7,0,1.4,0,2.1c0.5,0.1,1.4-0.5,1.4-0.9c-0.1-1.9,0.3-3.7,1-5.5c0.1-0.4,0.2-0.8,0.4-1.3c0.2,0.7,0.5,1.4,0.7,2.1
	c0.2,0.8,0.4,1.6,0.5,2.4c0.1,0.8,0.2,1.6,0.2,2.4c0.3,0.3,0.5,0.7,0.8,1c0.3-8.9,0.6-17.7,0.8-26.6c-2.2-1.1-2.4-3.2-0.6-4.7
	c0.8-0.6,0.4-1.5,0.3-2.3c0-0.1-0.1-0.2-0.1-0.3c0.2,0,0.4-0.1,0.5-0.1c0.7-1.8,0.4-3.6,0.4-5.3c0-1.8,0-3.6,0-5.4
	c0-0.3,0-0.5,0-0.8C29-175.4,29.1-175.4,29.2-175.4z"/>
<g>
	<path fill="#E96C77" d="M43.7-185v31.1h-8.9V-185h-8.4v-7.5h25.7v7.5H43.7z"/>
</g>
<g>
	<path fill="#E96C77" d="M16.5-185v31.1H7.6V-185h-8.4v-7.5h25.7v7.5H16.5z"/>
</g>
<g>
	<path fill="#E96C77" d="M70.6-185v31.1h-8.9V-185h-8.4v-7.5H79v7.5H70.6z"/>
</g>
<g>
	<path fill="#CCCCCC" d="M-113.5-32.6v7.8h3v1.9h-5.3v-9.8H-113.5z"/>
	<path fill="#CCCCCC" d="M-100.9-31.4c0.9,0.9,1.5,2.2,1.5,3.7c0,1.3-0.5,2.6-1.5,3.7c-0.9,0.9-2.1,1.4-3.8,1.4
		c-1.8,0-3.1-0.7-3.8-1.4c-0.9-0.9-1.5-2.2-1.5-3.6c0-1.4,0.6-2.8,1.5-3.7c0.7-0.7,1.9-1.4,3.8-1.4
		C-103.1-32.8-101.8-32.3-100.9-31.4z M-106.8-29.9c-0.4,0.4-0.9,1.1-0.9,2.2c0,0.9,0.3,1.6,0.9,2.2c0.6,0.6,1.3,0.8,2.1,0.8
		c1,0,1.7-0.4,2.2-0.8c0.4-0.4,0.8-1.1,0.8-2.2c0-1-0.4-1.8-0.8-2.2c-0.5-0.5-1.3-0.8-2.1-0.8C-105.5-30.7-106.2-30.4-106.8-29.9z"
		/>
	<path fill="#CCCCCC" d="M-93-28.2h4.8v0.1c0,1.2-0.4,3-1.5,4.1c-1.1,1.1-2.3,1.3-3.5,1.3c-1.2,0-2.4-0.2-3.6-1.4
		c-0.6-0.6-1.4-1.8-1.4-3.7c0-1.6,0.6-2.9,1.4-3.7c1.2-1.2,2.7-1.4,3.8-1.4c0.8,0,1.8,0.1,2.7,0.7c0.7,0.4,1.2,1.1,1.6,1.7l-2,1.1
		c-0.2-0.4-0.5-0.8-0.9-1.1c-0.4-0.3-0.9-0.5-1.5-0.5c-0.9,0-1.5,0.3-2,0.8c-0.5,0.6-0.8,1.4-0.8,2.3c0,1.1,0.4,1.8,0.8,2.2
		c0.6,0.6,1.2,0.8,2,0.8c1,0,1.5-0.3,1.7-0.5c0.1-0.1,0.5-0.4,0.7-1.2H-93V-28.2z"/>
	<path fill="#CCCCCC" d="M-77.8-31.4c0.9,0.9,1.5,2.2,1.5,3.7c0,1.3-0.5,2.6-1.5,3.7c-0.9,0.9-2.1,1.4-3.8,1.4
		c-1.8,0-3.1-0.7-3.8-1.4c-0.9-0.9-1.5-2.2-1.5-3.6c0-1.4,0.6-2.8,1.5-3.7c0.7-0.7,1.9-1.4,3.8-1.4C-80.1-32.8-78.8-32.3-77.8-31.4z
		 M-83.7-29.9c-0.4,0.4-0.9,1.1-0.9,2.2c0,0.9,0.3,1.6,0.9,2.2c0.6,0.6,1.3,0.8,2.1,0.8c1,0,1.7-0.4,2.2-0.8
		c0.4-0.4,0.8-1.1,0.8-2.2c0-1-0.4-1.8-0.8-2.2c-0.5-0.5-1.3-0.8-2.1-0.8C-82.4-30.7-83.2-30.4-83.7-29.9z"/>
</g>
<g>
	<path fill="#FFFFFF" d="M47.1-26.7H17.7c-7.2,0-13-5.8-13-13V-56c0-7.2,5.8-13,13-13h29.4c7.2,0,13,5.8,13,13v16.3
		C60.1-32.5,54.3-26.7,47.1-26.7z M17.7-67c-6.1,0-11,4.9-11,11v16.3c0,6.1,4.9,11,11,11h29.4c6.1,0,11-4.9,11-11V-56
		c0-6.1-4.9-11-11-11H17.7z"/>
</g>
<rect x="13.8" y="-60" fill="#FFFFFF" width="37.2" height="3.5"/>
<rect x="13.8" y="-50.3" fill="#FFFFFF" width="37.2" height="3.5"/>
<rect x="13.8" y="-40.8" fill="#FFFFFF" width="37.2" height="3.5"/>
<rect x="-4.2" y="12.7" transform="matrix(0.7071 -0.7071 0.7071 0.7071 -5.9667 14.405)" fill="#FFFFFF" width="37.2" height="3.5"/>
<rect x="-4.2" y="12.7" transform="matrix(-0.7071 -0.7071 0.7071 -0.7071 14.405 34.7766)" fill="#FFFFFF" width="37.2" height="3.5"/>
</svg>
