<?xml version="1.0" encoding="utf-8"?>
<!-- Generator: Adobe Illustrator 18.1.1, SVG Export Plug-In . SVG Version: 6.00 Build 0)  -->
<svg version="1.1" id="Layer_1" xmlns="http://www.w3.org/2000/svg" xmlns:xlink="http://www.w3.org/1999/xlink" x="0px" y="0px"
	 viewBox="0 0 456.3 47.2" enable-background="new 0 0 456.3 47.2" xml:space="preserve">
<text transform="matrix(1 0 0 1 234.8569 183.821)"><tspan x="0" y="0" fill="#E96C77" font-family="'FuturaPT-Heavy'" font-size="35.2696">T</tspan><tspan x="16.2" y="0" fill="#FFFFFF" font-family="'FuturaPT-Heavy'" font-size="35.2696">WIN</tspan><tspan x="90.4" y="0" fill="#E96C77" font-family="'FuturaPT-Heavy'" font-size="35.2696">T</tspan><tspan x="106.7" y="0" fill="#FFFFFF" font-family="'FuturaPT-Heavy'" font-size="35.2696">ECH</tspan><tspan x="171.1" y="0" fill="#E96C77" font-family="'FuturaPT-Heavy'" font-size="35.2696">T</tspan><tspan x="187.3" y="0" fill="#FFFFFF" font-family="'FuturaPT-Heavy'" font-size="35.2696">OWNS</tspan></text>
<text transform="matrix(1 0 0 1 386.3013 198.9177)" fill="#FFFFFF" font-family="'FuturaPT-HeavyObl'" font-size="17.9434">BERLIN - TEL AVIV</text>
<text transform="matrix(1 0 0 1 71.8569 32.821)"><tspan x="0" y="0" fill="#E96C77" font-family="'FuturaPT-Heavy'" font-size="45">T</tspan><tspan x="20.7" y="0" fill="#FFFFFF" font-family="'FuturaPT-Heavy'" font-size="35.2696">WIN</tspan><tspan x="94.9" y="0" fill="#E96C77" font-family="'FuturaPT-Heavy'" font-size="45">T</tspan><tspan x="115.6" y="0" fill="#FFFFFF" font-family="'FuturaPT-Heavy'" font-size="35.2696">ECH</tspan><tspan x="180" y="0" fill="#E96C77" font-family="'FuturaPT-Heavy'" font-size="45">T</tspan><tspan x="200.7" y="0" fill="#FFFFFF" font-family="'FuturaPT-Heavy'" font-size="35.2696">OWNS</tspan></text>
<text transform="matrix(1 0 0 1 172.5382 47.2163)" fill="#FFFFFF" font-family="'FuturaPT-HeavyObl'" font-size="12.3026">BERLIN - TEL AVIV</text>
<rect y="3.3" fill="#FFFFFF" width="66" height="4"/>
<rect x="17.9" y="12.3" fill="#FFFFFF" width="48.1" height="4"/>
<rect x="35.9" y="20.3" fill="#FFFFFF" width="30.1" height="4"/>
<rect x="51" y="28.3" fill="#FFFFFF" width="15" height="4"/>
<rect x="390.3" y="3.8" fill="#FFFFFF" width="66" height="4"/>
<rect x="390.3" y="12.8" fill="#FFFFFF" width="48.1" height="4"/>
<rect x="390.3" y="20.8" fill="#FFFFFF" width="30.1" height="4"/>
<rect x="390.3" y="28.8" fill="#FFFFFF" width="15" height="4"/>
</svg>
