<?xml version="1.0" encoding="utf-8"?>
<!-- Generator: Adobe Illustrator 18.1.1, SVG Export Plug-In . SVG Version: 6.00 Build 0)  -->
<svg version="1.1" id="Layer_1" xmlns="http://www.w3.org/2000/svg" xmlns:xlink="http://www.w3.org/1999/xlink" x="0px" y="0px"
	 viewBox="0 0 100.5 100.5" enable-background="new 0 0 100.5 100.5" xml:space="preserve">
<rect x="120.5" y="-158.2" fill="#595D7A" width="130.5" height="126"/>
<text transform="matrix(1 0 0 1 376.3569 -41.5123)"><tspan x="0" y="0" fill="#E96C77" font-family="'FuturaPT-Heavy'" font-size="35.2696">T</tspan><tspan x="16.2" y="0" fill="#FFFFFF" font-family="'FuturaPT-Heavy'" font-size="35.2696">WIN</tspan><tspan x="90.4" y="0" fill="#E96C77" font-family="'FuturaPT-Heavy'" font-size="35.2696">T</tspan><tspan x="106.7" y="0" fill="#FFFFFF" font-family="'FuturaPT-Heavy'" font-size="35.2696">ECH</tspan><tspan x="171.1" y="0" fill="#E96C77" font-family="'FuturaPT-Heavy'" font-size="35.2696">T</tspan><tspan x="187.3" y="0" fill="#FFFFFF" font-family="'FuturaPT-Heavy'" font-size="35.2696">OWNS</tspan></text>
<text transform="matrix(1 0 0 1 527.8013 -26.4157)" fill="#FFFFFF" font-family="'FuturaPT-HeavyObl'" font-size="17.9434">BERLIN - TEL AVIV</text>
<g>
	<path fill="#E96C77" d="M227.2-216.7v24.2h-6.9v-24.2h-6.5v-5.8h20v5.8H227.2z"/>
	<path fill="#FFFFFF" d="M239.8-216l5,15.6l5-15.6h3.7l5,15.6l5-15.6h5.6l-8,23.5h-4.6l-4.9-14.3l-4.9,14.3h-4.6l-8-23.5H239.8z"/>
	<path fill="#FFFFFF" d="M277.5-216v23.5h-5.4V-216H277.5z"/>
	<path fill="#FFFFFF" d="M282.8-192.5V-216h4.7l12.8,15.2V-216h5.4v23.5H301l-12.8-15.2v15.2H282.8z"/>
	<path fill="#E96C77" d="M322.1-216.7v24.2h-6.9v-24.2h-6.5v-5.8h20v5.8H322.1z"/>
	<path fill="#FFFFFF" d="M344.8-211.4H337v4.5h7.5v4.6H337v5.2h7.9v4.6h-13.3V-216h13.3V-211.4z"/>
	<path fill="#FFFFFF" d="M366.2-193.3c-2.1,1.1-3.8,1.3-5.2,1.3c-4.3,0-7.3-1.5-9.2-3.4c-2.1-2-3.7-5.1-3.7-8.9
		c0-3.7,1.6-6.8,3.7-8.9c2.1-2,5.1-3.4,8.8-3.4c1.6,0,3.3,0.3,5.6,1.3v6.3c-1.2-1.3-3-2.5-5.5-2.5c-2,0-3.6,0.6-4.8,1.8
		c-1.3,1.3-2.2,3.2-2.2,5.4c0,2.4,1,4.2,2,5.2c0.5,0.5,2.2,2,5.1,2c1.4,0,3.3-0.4,5.4-2.4V-193.3z"/>
	<path fill="#FFFFFF" d="M376-207.1h9.4v-9h5.4v23.5h-5.4v-10H376v10h-5.4V-216h5.4V-207.1z"/>
	<path fill="#E96C77" d="M407.2-216.7v24.2h-6.9v-24.2h-6.5v-5.8h20v5.8H407.2z"/>
	<path fill="#FFFFFF" d="M437.5-213.1c2.2,2.2,3.7,5.3,3.7,8.9c0,3.1-1.1,6.3-3.7,8.8c-2.2,2.1-5.1,3.5-9.1,3.5
		c-4.4,0-7.4-1.8-9.2-3.5c-2.3-2.1-3.7-5.3-3.7-8.7c0-3.4,1.5-6.8,3.6-8.9c1.6-1.6,4.5-3.5,9.2-3.5
		C432.1-216.6,435.2-215.4,437.5-213.1z M423.2-209.5c-1,1-2.1,2.7-2.1,5.3c0,2.2,0.7,3.9,2.2,5.3c1.5,1.4,3.2,1.9,5,1.9
		c2.4,0,4.1-0.9,5.2-2c0.9-0.9,2-2.5,2-5.3c0-2.4-1-4.2-2-5.3c-1.2-1.1-3-2-5.2-2C426.3-211.6,424.5-210.8,423.2-209.5z"/>
	<path fill="#FFFFFF" d="M447.4-216l5,15.6l5-15.6h3.7l5,15.6l5-15.6h5.6l-8,23.5h-4.6l-4.9-14.3l-4.9,14.3h-4.6l-8-23.5H447.4z"/>
	<path fill="#FFFFFF" d="M479.6-192.5V-216h4.7l12.8,15.2V-216h5.4v23.5h-4.7L485-207.7v15.2H479.6z"/>
	<path fill="#FFFFFF" d="M519.8-210.3c-1.8-1.6-3.3-1.7-4-1.7c-0.7,0-1.7,0.1-2.3,0.8c-0.4,0.4-0.6,0.9-0.6,1.5c0,0.6,0.2,1,0.5,1.3
		c0.6,0.5,1.4,0.7,3,1.3l1.8,0.7c1,0.4,2.3,0.9,3.2,1.8c1.4,1.3,1.7,3,1.7,4.4c0,2.4-0.8,4.5-2.1,5.8c-2.1,2.2-5.1,2.4-6.7,2.4
		c-1.7,0-3.2-0.2-4.7-1c-1.2-0.6-2.6-1.7-3.5-2.6l2.8-3.9c0.6,0.6,1.6,1.4,2.2,1.8c0.9,0.6,1.9,0.8,3,0.8c0.7,0,1.7-0.1,2.5-0.8
		c0.5-0.4,0.8-1,0.8-1.9c0-0.8-0.3-1.3-0.8-1.7c-0.6-0.5-2.1-1.1-2.8-1.3l-1.9-0.7c-1.1-0.4-2.4-0.9-3.3-1.9c-1.2-1.3-1.4-3-1.4-4.1
		c0-2.1,0.6-3.8,2-5.3c1.7-1.7,3.6-2.2,5.8-2.2c1.6,0,4.2,0.3,7,2.3L519.8-210.3z"/>
</g>
<g>
	<path fill="#FFFFFF" d="M323.4-188.1h2.6c0.6,0,1.3,0.1,1.8,0.6c0.3,0.3,0.5,0.8,0.5,1.4c0,0.5-0.1,0.9-0.4,1.3
		c-0.3,0.4-0.6,0.5-0.9,0.6c0.4,0.1,0.7,0.3,0.9,0.5c0.4,0.4,0.5,0.8,0.5,1.3c0,0.9-0.3,1.4-0.7,1.8c-0.7,0.7-1.6,0.8-2.5,0.8h-3
		L323.4-188.1z M324.5-181.4h0.7c0.4,0,0.9,0,1.2-0.3c0.1-0.1,0.3-0.3,0.3-0.8c0-0.2,0-0.4-0.2-0.6c-0.3-0.3-0.8-0.3-1-0.3h-0.7
		L324.5-181.4z M324.9-184.7h0.4c0.3,0,0.8,0,1-0.3c0.2-0.2,0.3-0.5,0.3-0.7c0-0.3-0.1-0.5-0.3-0.6c-0.2-0.2-0.6-0.2-0.8-0.2h-0.4
		L324.9-184.7z"/>
	<path fill="#FFFFFF" d="M335-186.5h-2.7l-0.2,1.6h2.6l-0.2,1.6H332l-0.2,1.8h2.7l-0.2,1.6h-4.6l1-8.2h4.5L335-186.5z"/>
	<path fill="#FFFFFF" d="M339.5-188.1c0.8,0,1.6,0.1,2.2,0.7c0.3,0.3,0.6,0.8,0.6,1.7c0,0.8-0.3,1.4-0.7,1.8
		c-0.4,0.3-0.8,0.6-1.3,0.7l2.1,3.3h-2.2l-2-3.2l-0.4,3.2h-1.9l1-8.2H339.5z M338.3-184.4h0.5c0.3,0,0.8,0,1.1-0.3
		c0.3-0.3,0.4-0.6,0.4-1c0-0.3-0.1-0.6-0.4-0.8c-0.2-0.2-0.6-0.2-1-0.2h-0.3L338.3-184.4z"/>
	<path fill="#FFFFFF" d="M346.3-188.1l-0.8,6.6h2.6l-0.2,1.6h-4.5l1-8.2H346.3z"/>
	<path fill="#FFFFFF" d="M351.8-188.1l-1,8.2h-1.9l1-8.2H351.8z"/>
	<path fill="#FFFFFF" d="M352.6-179.9l1-8.2h1.6l3.8,5.3l0.7-5.3h1.9l-1,8.2H359l-3.8-5.4l-0.7,5.4H352.6z"/>
	<path fill="#FFFFFF" d="M365.5-183.8h3.1l-0.2,1.5h-3.1L365.5-183.8z"/>
	<path fill="#FFFFFF" d="M376.2-186.5l-0.8,6.6h-1.9l0.8-6.6h-1.8l0.2-1.6h5.5l-0.2,1.6H376.2z"/>
	<path fill="#FFFFFF" d="M383.5-186.5h-2.7l-0.2,1.6h2.6l-0.2,1.6h-2.6l-0.2,1.8h2.7l-0.2,1.6h-4.6l1-8.2h4.5L383.5-186.5z"/>
	<path fill="#FFFFFF" d="M387.3-188.1l-0.8,6.6h2.6l-0.2,1.6h-4.5l1-8.2H387.3z"/>
	<path fill="#FFFFFF" d="M397.8-181.4h-3.1l-0.8,1.5h-2l4.3-8.2h1.7l2.2,8.2h-1.9L397.8-181.4z M397.5-182.9l-0.7-2.9l-1.4,2.9
		H397.5z"/>
	<path fill="#FFFFFF" d="M402.6-188.1l1.4,5.3l2.7-5.3h2.1l-4.5,8.2h-1.3l-2.5-8.2H402.6z"/>
	<path fill="#FFFFFF" d="M411.7-188.1l-1,8.2h-1.9l1-8.2H411.7z"/>
	<path fill="#FFFFFF" d="M414.7-188.1l1.4,5.3l2.7-5.3h2.1l-4.5,8.2h-1.3l-2.5-8.2H414.7z"/>
</g>
<rect x="141.5" y="-222" fill="#FFFFFF" width="66" height="4"/>
<rect x="159.4" y="-213" fill="#FFFFFF" width="48.1" height="4"/>
<rect x="177.4" y="-205" fill="#FFFFFF" width="30.1" height="4"/>
<rect x="192.5" y="-197" fill="#FFFFFF" width="15" height="4"/>
<rect x="531.8" y="-221.5" fill="#FFFFFF" width="66" height="4"/>
<rect x="531.8" y="-212.5" fill="#FFFFFF" width="48.1" height="4"/>
<rect x="531.8" y="-204.5" fill="#FFFFFF" width="30.1" height="4"/>
<rect x="531.8" y="-196.5" fill="#FFFFFF" width="15" height="4"/>
<polygon id="israel" opacity="0.43" points="346,-70 345.1,-68.1 344.6,-61.5 342.9,-61.4 342.1,-60.4 340.8,-60.1 338,-57.6 
	336.8,-57.5 334.6,-55.3 331.8,-55.1 328.3,-53.4 325.2,-54.4 321.6,-58.3 318.4,-57.9 317,-59.3 316.7,-66.1 315.7,-67.2 
	310.4,-67.4 310,-62.8 309.2,-62.8 308.6,-64.8 302.2,-64.4 302.2,-61.7 298.2,-61.7 298.3,-56.6 294,-56.6 290.7,-57.5 290.3,-67 
	289.6,-68.4 285.5,-66.1 284.1,-57.9 282.1,-57.4 282,-53.4 280.2,-54.1 279.8,-57.4 278,-58.2 277.7,-73.4 273,-76.5 268.2,-75.4 
	268.1,-58.4 263.1,-58 262.2,-55.4 246.7,-56.1 246.5,-58.7 244.2,-59.2 243.7,-65.5 239.7,-65.3 239.4,-56.5 236,-56.5 
	235.8,-67.4 231.9,-67.7 231.6,-72.9 229.3,-75.2 223,-75 222.4,-72.4 219.4,-72 219.1,-59.4 217.2,-59.6 217,-61.9 213.7,-64 
	213.9,-77.6 212.1,-78.1 210.2,-81 205.2,-81 204.8,-79.1 201.6,-78.4 201,-72.1 199.5,-72 199.4,-83.4 193.3,-86.2 187.6,-84 
	187.8,-72.5 186.2,-72.5 186,-83.8 176.4,-88.2 174.6,-86.8 174,-73.5 172.3,-75.9 166.9,-77 166.7,-79.3 158.4,-79.3 158.4,-76.7 
	156,-76 155.2,-67.4 153.6,-65.7 153.6,-58.6 146.2,-57.5 146,-52.4 141.3,-52.6 138.9,-55.3 134.2,-54.5 132.6,-51.5 128,-51.9 
	128.3,-59.7 122.3,-58.3 122,-55.7 119.7,-54 120.6,-64.3 115.5,-64.2 115.3,-62 112.9,-61.8 112.3,-59.7 110.1,-59.5 109.6,-57.1 
	107.9,-56.6 107.9,-51.3 106.2,-51.7 106.3,-69.6 102.7,-69.2 99.8,-62.8 99.1,-51.9 98.1,-51.8 96.7,-57.2 90.3,-56.2 89.1,-51.3 
	84.2,-51 85.2,-56.3 75.2,-55.6 73.2,-49.4 70.3,-49.4 69.1,-69.8 66,-68.8 64.9,-53.1 62.4,-52.7 62.2,-50.1 59.9,-49.7 59.7,-48 
	58,-48 51.4,-45.4 361.4,-45.4 358.1,-46.6 353.3,-50.5 350.9,-57.3 348.5,-58.7 348.1,-68.5 347.1,-70.1 346.9,-73.3 346.5,-73.5 
	"/>
<path id="berlin" d="M176.5-98.4c0,0.2,0,0.5,0,0.7c0.1,3.1,0.1,6.3,0.2,9.4c0,0.6,0.1,1.1,0.5,1.7c0.3,0.4,0.1,1.1,0.1,1.6
	c0,0.4,0.1,0.7,0.5,0.9c1.3,0.6,1.5,2.7,0.4,3.9c-0.2,0.3-0.6,0.5-0.7,0.7c-0.1,0.3-0.2,0.6-0.3,1c0,0.2-0.1,0.4-0.1,0.6
	c0.3,5.7,0.6,11.4,1,17.1c0.1,2.5,0.2,4.9,0.3,7.4c0,0.3,0,0.5,0,0.9c0.8-0.1,1.5-0.2,2.2-0.3c-0.1-1.8,0.3-3.6-0.3-5.4
	c0.3-0.4,1-0.8,1.2-1.4c0.2-0.7,0.2-1.5,0.2-2.3c0-0.5,0.3-0.9,0.8-0.9c1.5,0,3.1,0,4.7,0c0.1,1,0.1,1.9,0.2,2.8
	c1.1,0.1,2.2,0.1,3.2,0.2c0.1,0.3,0.1,0.5,0.1,0.7c1.8,0,3.6,0,5.4,0c0.2-1.3,0.5-2.5,0.7-3.8c0-0.2,0.2-0.3,0.3-0.4
	c0.1,0.1,0.3,0.2,0.4,0.4c0.1,0.4,0.1,0.8,0.2,1.3c0.3-0.4,0.6-0.7,0.8-1c2.1-2.3,4.3-2.8,6.6-1.1c0.5,0.4,0.8,0.9,1.2,1.4
	c0.2,0.3,0.5,0.6,0.8,1.1c0.1-0.8,0.1-1.3,0.1-1.8c0-0.1,0.2-0.2,0.3-0.4c0.1,0.1,0.3,0.2,0.3,0.3c0.3,1.3,0.6,2.5,0.9,3.9
	c1.5,0,3.3,0,5,0c0.3-1.1,1.3-0.7,2.1-0.9c0-0.8,0-1.7,0-2.7c1,0,1.9,0,2.9,0c1.1,0,2.3-0.1,3.4-0.1c0.3,0,0.6,0.2,1,0.2
	c-0.5,1.3-0.2,2.3,0.2,3.5c0.2-0.3,0.3-0.6,0.4-0.8c0.2,0.7,0.4,1.2,0.6,1.9c-0.1,0.4-0.2,0.9-0.2,1.5c-0.1,1.3-0.1,2.6-0.2,3.9
	c0.7,0,1.3,0,2,0c0-1.3,0.1-2.6,0-3.9c-0.1-1.3-0.5-2.5-0.8-3.8c0.3-0.1,0.8-0.2,1.3-0.4c-0.1-0.5-0.3-1-0.4-1.6c2,0,4,0,5.9,0
	c0.4,0,0.9,0,1.3,0c0.3,0,0.7,0.1,0.9-0.4c0-0.1,0.3-0.1,0.5-0.1c0.3,0,0.7,0,0.8,0c-0.1-0.8-0.2-1.5-0.4-2.3
	c0.5,0.3,0.9,0.6,1.4,0.8c0.1-0.4,0.2-0.7,0.4-1.3c0.5,0.3,0.9,0.6,1.4,0.9c0.1-0.1,0.3-0.4,0.5-0.7c0.1,0.6,0.2,1,0.3,1.5
	c0.5-0.5,0.9-0.9,1.3-1.3c0.2,0.8,0.2,0.8-1,2.3c0.4,0,0.8,0,1.2,0.1c0.3,0.1,0.6,0.3,0.9,0.4c0.2,0.1,0.5,0.2,0.8,0.2
	c1.9,0,3.9,0,5.8,0c0.4,0,0.7,0,1.1,0c-0.3,1.6-0.3,1.6,1.2,1.9c-1.6,2.2-1.1,4.7-1.1,7.2c0.4,0,0.7,0,1.1,0c0-1.7,0-3.5,0-5.3
	c1.3,0,2.5,0,3.8,0c0,0.6,0,1.3,0,1.9c1.1,0.2,1.2,0.2,1.3-0.8c0.1-1.4,0.1-2.8,0-4.3c-0.1-1.5-0.1-3,0.4-4.5
	c0.2-0.7,0.3-1.5-0.1-2.3c-0.1-0.2-0.1-0.8,0.1-1c0.6-0.7,0.4-1.6,0.6-2.5c0-0.1-0.1-0.2-0.1-0.2c-0.5-0.4-0.9-0.9-1.5-1.4
	c0.3-0.2,0.4-0.3,0.4-0.3c0.5,0.4,0.8,0.7,1.2,1c0.1,0,0.1-0.1,0.2-0.1c0-0.4-0.3-1,0.5-0.9c0,0.2,0.1,0.4,0.1,0.7
	c0.3,0,0.6,0.1,1.2,0.1c-0.3,0.3-0.5,0.5-0.8,0.6c-0.4,0.1-0.5,0.4-0.5,0.8c0,0.4-0.1,0.7-0.1,1.1c0,0.5-0.1,0.9,0.5,1.2
	c0.2,0.1,0.3,0.8,0.1,1.1c-0.4,0.7-0.4,1.5-0.2,2.2c0.5,1.3,0.6,2.7,0.5,4.1c-0.1,1.5-0.1,3.1-0.1,4.6c0,0.6,0.3,0.9,1,1
	c0.5,0.1,0.9,0.2,1.2,0.3c-0.1,1.1-0.2,2.1-0.3,3.1c0.9,0,1.6,0,2.3,0c0-0.6,0-1.1,0-1.7c0.7,0,1.4,0,2.2,0c0-0.4,0-0.6,0-0.9
	c0-4.1,0-8.2,0-12.4c0-0.4,0.2-0.8,0.5-1c1.1-1.1,2.3-2.2,3.6-3.4c0,0.5-0.1,0.7,0,1c0.1,0.3,0.3,0.5,0.4,0.7
	c0.1,0.2,0.3,0.5,0.3,0.7c0,4,0,8,0,12c0,1.8,0,3.6,0,5.4c0.5,0,0.9,0,1.4,0c0-0.3,0-0.6,0-0.8c0-5.1,0-10.2,0-15.3
	c0-0.9,0.3-1.7,0.9-2.3c1.1-1.1,2.4-1.8,3.9-2.3c0,0.8,0.6,0.7,1.1,0.7c0,0.5,0.1,0.9,0.1,1.3c0.3,0,0.5,0.1,0.9,0.1
	c0,5.7,0,11.4,0,17.1c0.8,0,1.5,0,2.2,0c0-0.9,0-1.8,0-2.8c0-0.2,0.2-0.5,0.3-0.7c0.2-0.3,0.4-0.5,0.5-0.8c0.4-0.9,0.8-1.2,1.6-1.1
	c1,0.1,1.6,0.6,1.8,1.4c0,0.1,0,0.3,0.1,0.5c0.2,0,0.4,0.1,0.6,0.2c0,0.1,0.1,0.2,0.1,0.3c0,1.2,0,2.4,0,3.6c0,1.2,0,1.2,1.3,1.4
	c0-0.6,0-1.2,0-1.9c0.7,0,1.3,0,2,0c0-0.3,0.1-0.6,0.1-0.9c0.9,0,1.7,0,2.6,0c0,1.7,0,3.4,0,5.1c0.6,0,1.2,0,1.8,0
	c0-0.9,0-1.9,0-2.7c1.4-0.3,1.9-0.2,2.1,0.6c0.7,0,1.4,0,2.1,0c0.3,0,0.6,0,0.9,0c1.4,0.2,1.5,0.3,1.5,1.7c0,0.9,0,1.8,0,2.7
	c0,0,0,0.1,0.1,0.2c0.2,0,0.5,0,0.8,0c0-0.3,0.1-0.5,0.1-0.8c0.9,0,1.9,0,2.8,0c0,0.6,0,1.2,0,1.9c0.5,0,0.9,0,1.3,0.1
	c0,0.3,0,0.5,0.1,0.7c-56.7,0-113.3,0-170,0c0-1,0-1.8,0-2.6c0-0.1,0.1-0.3,0.1-0.3c1-0.3,2.1-0.5,3.2-0.8c0,0.8,0,1.5,0,2.1
	c0.4,0,0.7,0,1.1,0c0-1.1,0-2.3,0-3.5c0.3-0.1,0.6-0.1,0.9-0.1c0-0.6,0-1.2,0-1.9c1.5,0,3,0,4.5,0c0,0.9,0,1.8,0,2.8
	c0.6,0,1.2,0,1.8,0c0-1.7,0-3.3,0-5c1.5-0.4,2.7,0.6,4,0.8c0,0.8,0,1.7,0,2.6c1.3,0,1.3,0,1.3-1.2c0-3.2,0-6.4,0-9.5
	c0-0.3,0-0.5,0-0.8c1.5,0,2.8,0,4.3,0c0,1.8,0,3.5,0,5.2c0.1,0,0.2,0,0.3,0c0.1-0.3,0.2-0.6,0.2-0.9c0-2.2,0-4.3,0-6.5
	c0-0.3-0.1-0.7,0.4-0.9c0.1,0,0.1-0.2,0.1-0.3c0-0.6-0.1-1.1,0.7-1.2c0.1,0,0.3-0.6,0.3-0.9c0.1-0.7,0.3-1.4,1.3-1.4
	c0.2,0,0.3-0.4,0.6-0.7c0.6-0.1,1.1,0.3,1.2,1.1c0.2,1.6,0.6,3.1,0.8,4.7c0.1,0.4,0,0.8-0.1,1.3c0,0.2-0.1,0.3-0.1,0.5
	c0,1.4-0.1,2.8,0.1,4.2c0.2,1.5,0.9,3,1.3,4.4c0.3-2.5,0.6-5.1,0.9-7.6c0.1,0,0.2,0,0.4,0c0.4,3.1,0.9,6.2,1.3,9.4
	c0.1,0,0.2,0.1,0.3,0.1c0.1-0.2,0.4-0.3,0.4-0.5c0.1-0.5-0.1-1.2,0.2-1.4c0.7-0.4,1.5-0.6,2.3-0.9c0.3-0.1,0.7,0,1.1,0
	c0,0.7,0,1.4,0,2.1c0.5,0.1,1.4-0.5,1.4-0.9c-0.1-1.9,0.3-3.7,1-5.5c0.1-0.4,0.2-0.8,0.4-1.3c0.2,0.7,0.5,1.4,0.7,2.1
	c0.2,0.8,0.4,1.6,0.5,2.4c0.1,0.8,0.2,1.6,0.2,2.4c0.3,0.3,0.5,0.7,0.8,1c0.3-8.9,0.6-17.7,0.8-26.6c-2.2-1.1-2.4-3.2-0.6-4.7
	c0.8-0.6,0.4-1.5,0.3-2.3c0-0.1-0.1-0.2-0.1-0.3c0.2,0,0.4-0.1,0.5-0.1c0.7-1.8,0.4-3.6,0.4-5.3c0-1.8,0-3.6,0-5.4
	c0-0.3,0-0.5,0-0.8C176.3-98.4,176.4-98.4,176.5-98.4z"/>
<g>
	<path fill="#E96C77" d="M191-108v31.1H182V-108h-8.4v-7.5h25.7v7.5H191z"/>
</g>
<g>
	<path fill="#E96C77" d="M163.8-108v31.1h-8.9V-108h-8.4v-7.5h25.7v7.5H163.8z"/>
</g>
<g>
	<path fill="#E96C77" d="M217.9-108v31.1H209V-108h-8.4v-7.5h25.7v7.5H217.9z"/>
</g>
<g>
	<path fill="#CCCCCC" d="M33.8,44.4v7.8h3v1.9h-5.3v-9.8H33.8z"/>
	<path fill="#CCCCCC" d="M46.4,45.6c0.9,0.9,1.5,2.2,1.5,3.7c0,1.3-0.5,2.6-1.5,3.7c-0.9,0.9-2.1,1.4-3.8,1.4
		c-1.8,0-3.1-0.7-3.8-1.4c-0.9-0.9-1.5-2.2-1.5-3.6c0-1.4,0.6-2.8,1.5-3.7c0.7-0.7,1.9-1.4,3.8-1.4C44.2,44.2,45.5,44.7,46.4,45.6z
		 M40.5,47.1c-0.4,0.4-0.9,1.1-0.9,2.2c0,0.9,0.3,1.6,0.9,2.2c0.6,0.6,1.3,0.8,2.1,0.8c1,0,1.7-0.4,2.2-0.8c0.4-0.4,0.8-1.1,0.8-2.2
		c0-1-0.4-1.8-0.8-2.2c-0.5-0.5-1.3-0.8-2.1-0.8C41.8,46.3,41.1,46.6,40.5,47.1z"/>
	<path fill="#CCCCCC" d="M54.3,48.9h4.8V49c0,1.2-0.4,3-1.5,4.1c-1.1,1.1-2.3,1.3-3.5,1.3c-1.2,0-2.4-0.2-3.6-1.4
		c-0.6-0.6-1.4-1.8-1.4-3.7c0-1.6,0.6-2.9,1.4-3.7c1.2-1.2,2.7-1.4,3.8-1.4c0.8,0,1.8,0.1,2.7,0.7c0.7,0.4,1.2,1.1,1.6,1.7l-2,1.1
		c-0.2-0.4-0.5-0.8-0.9-1.1c-0.4-0.3-0.9-0.5-1.5-0.5c-0.9,0-1.5,0.3-2,0.8c-0.5,0.6-0.8,1.4-0.8,2.3c0,1.1,0.4,1.8,0.8,2.2
		c0.6,0.6,1.2,0.8,2,0.8c1,0,1.5-0.3,1.7-0.5c0.1-0.1,0.5-0.4,0.7-1.2h-2.4V48.9z"/>
	<path fill="#CCCCCC" d="M69.5,45.6c0.9,0.9,1.5,2.2,1.5,3.7c0,1.3-0.5,2.6-1.5,3.7c-0.9,0.9-2.1,1.4-3.8,1.4
		c-1.8,0-3.1-0.7-3.8-1.4c-0.9-0.9-1.5-2.2-1.5-3.6c0-1.4,0.6-2.8,1.5-3.7c0.7-0.7,1.9-1.4,3.8-1.4C67.2,44.2,68.5,44.7,69.5,45.6z
		 M63.6,47.1c-0.4,0.4-0.9,1.1-0.9,2.2c0,0.9,0.3,1.6,0.9,2.2c0.6,0.6,1.3,0.8,2.1,0.8c1,0,1.7-0.4,2.2-0.8c0.4-0.4,0.8-1.1,0.8-2.2
		c0-1-0.4-1.8-0.8-2.2c-0.5-0.5-1.3-0.8-2.1-0.8C64.9,46.3,64.1,46.6,63.6,47.1z"/>
</g>
</svg>
