<?xml version="1.0" encoding="utf-8"?>
<!-- Generator: Adobe Illustrator 18.1.1, SVG Export Plug-In . SVG Version: 6.00 Build 0)  -->
<svg version="1.1" id="Layer_1" xmlns="http://www.w3.org/2000/svg" xmlns:xlink="http://www.w3.org/1999/xlink" x="0px" y="0px"
	 viewBox="0 0 456.3 47.2" enable-background="new 0 0 456.3 47.2" xml:space="preserve">
<text transform="matrix(1 0 0 1 234.8569 183.821)"><tspan x="0" y="0" fill="#E96C77" font-family="'FuturaPT-Heavy'" font-size="35.2696">T</tspan><tspan x="16.2" y="0" fill="#FFFFFF" font-family="'FuturaPT-Heavy'" font-size="35.2696">WIN</tspan><tspan x="90.4" y="0" fill="#E96C77" font-family="'FuturaPT-Heavy'" font-size="35.2696">T</tspan><tspan x="106.7" y="0" fill="#FFFFFF" font-family="'FuturaPT-Heavy'" font-size="35.2696">ECH</tspan><tspan x="171.1" y="0" fill="#E96C77" font-family="'FuturaPT-Heavy'" font-size="35.2696">T</tspan><tspan x="187.3" y="0" fill="#FFFFFF" font-family="'FuturaPT-Heavy'" font-size="35.2696">OWNS</tspan></text>
<text transform="matrix(1 0 0 1 386.3013 198.9177)" fill="#FFFFFF" font-family="'FuturaPT-HeavyObl'" font-size="17.9434">BERLIN - TEL AVIV</text>
<g>
	<path fill="#E96C77" d="M85.7,8.7v24.2h-6.9V8.7h-6.5V2.8h20v5.8H85.7z"/>
	<path fill="#FFFFFF" d="M98.3,9.3l5,15.6l5-15.6h3.7l5,15.6l5-15.6h5.6l-8,23.5h-4.6l-4.9-14.3l-4.9,14.3h-4.6l-8-23.5H98.3z"/>
	<path fill="#FFFFFF" d="M136,9.3v23.5h-5.4V9.3H136z"/>
	<path fill="#FFFFFF" d="M141.3,32.8V9.3h4.7l12.8,15.2V9.3h5.4v23.5h-4.7l-12.8-15.2v15.2H141.3z"/>
	<path fill="#E96C77" d="M180.6,8.7v24.2h-6.9V8.7h-6.5V2.8h20v5.8H180.6z"/>
	<path fill="#FFFFFF" d="M203.3,13.9h-7.9v4.5h7.5V23h-7.5v5.2h7.9v4.6H190V9.3h13.3V13.9z"/>
	<path fill="#FFFFFF" d="M224.7,32.1c-2.1,1.1-3.8,1.3-5.2,1.3c-4.3,0-7.3-1.5-9.2-3.4c-2.1-2-3.7-5.1-3.7-8.9
		c0-3.7,1.6-6.8,3.7-8.9c2.1-2,5.1-3.4,8.8-3.4c1.6,0,3.3,0.3,5.6,1.3v6.3c-1.2-1.3-3-2.5-5.5-2.5c-2,0-3.6,0.6-4.8,1.8
		c-1.3,1.3-2.2,3.2-2.2,5.4c0,2.4,1,4.2,2,5.2c0.5,0.5,2.2,2,5.1,2c1.4,0,3.3-0.4,5.4-2.4V32.1z"/>
	<path fill="#FFFFFF" d="M234.5,18.3h9.4v-9h5.4v23.5h-5.4v-10h-9.4v10h-5.4V9.3h5.4V18.3z"/>
	<path fill="#E96C77" d="M265.7,8.7v24.2h-6.9V8.7h-6.5V2.8h20v5.8H265.7z"/>
	<path fill="#FFFFFF" d="M296,12.2c2.2,2.2,3.7,5.3,3.7,8.9c0,3.1-1.1,6.3-3.7,8.8c-2.2,2.1-5.1,3.5-9.1,3.5c-4.4,0-7.4-1.8-9.2-3.5
		c-2.3-2.1-3.7-5.3-3.7-8.7c0-3.4,1.5-6.8,3.6-8.9c1.6-1.6,4.5-3.5,9.2-3.5C290.6,8.8,293.7,9.9,296,12.2z M281.7,15.8
		c-1,1-2.1,2.7-2.1,5.3c0,2.2,0.7,3.9,2.2,5.3c1.5,1.4,3.2,1.9,5,1.9c2.4,0,4.1-0.9,5.2-2c0.9-0.9,2-2.5,2-5.3c0-2.4-1-4.2-2-5.3
		c-1.2-1.1-3-2-5.2-2C284.8,13.8,283,14.5,281.7,15.8z"/>
	<path fill="#FFFFFF" d="M305.9,9.3l5,15.6l5-15.6h3.7l5,15.6l5-15.6h5.6l-8,23.5h-4.6l-4.9-14.3l-4.9,14.3h-4.6l-8-23.5H305.9z"/>
	<path fill="#FFFFFF" d="M338.1,32.8V9.3h4.7l12.8,15.2V9.3h5.4v23.5h-4.7l-12.8-15.2v15.2H338.1z"/>
	<path fill="#FFFFFF" d="M378.3,15c-1.8-1.6-3.3-1.7-4-1.7c-0.7,0-1.7,0.1-2.3,0.8c-0.4,0.4-0.6,0.9-0.6,1.5c0,0.6,0.2,1,0.5,1.3
		c0.6,0.5,1.4,0.7,3,1.3l1.8,0.7c1,0.4,2.3,0.9,3.2,1.8c1.4,1.3,1.7,3,1.7,4.4c0,2.4-0.8,4.5-2.1,5.8c-2.1,2.2-5.1,2.4-6.7,2.4
		c-1.7,0-3.2-0.2-4.7-1c-1.2-0.6-2.6-1.7-3.5-2.6l2.8-3.9c0.6,0.6,1.6,1.4,2.2,1.8c0.9,0.6,1.9,0.8,3,0.8c0.7,0,1.7-0.1,2.5-0.8
		c0.5-0.4,0.8-1,0.8-1.9c0-0.8-0.3-1.3-0.8-1.7c-0.6-0.5-2.1-1.1-2.8-1.3l-1.9-0.7c-1.1-0.4-2.4-0.9-3.3-1.9c-1.2-1.3-1.4-3-1.4-4.1
		c0-2.1,0.6-3.8,2-5.3c1.7-1.7,3.6-2.2,5.8-2.2c1.6,0,4.2,0.3,7,2.3L378.3,15z"/>
</g>
<g>
	<path fill="#FFFFFF" d="M181.9,37.3h2.6c0.6,0,1.3,0.1,1.8,0.6c0.3,0.3,0.5,0.8,0.5,1.4c0,0.5-0.1,0.9-0.4,1.3
		c-0.3,0.4-0.6,0.5-0.9,0.6c0.4,0.1,0.7,0.3,0.9,0.5c0.4,0.4,0.5,0.8,0.5,1.3c0,0.9-0.3,1.4-0.7,1.8c-0.7,0.7-1.6,0.8-2.5,0.8h-3
		L181.9,37.3z M183,44h0.7c0.4,0,0.9,0,1.2-0.3c0.1-0.1,0.3-0.3,0.3-0.8c0-0.2,0-0.4-0.2-0.6c-0.3-0.3-0.8-0.3-1-0.3h-0.7L183,44z
		 M183.4,40.6h0.4c0.3,0,0.8,0,1-0.3c0.2-0.2,0.3-0.5,0.3-0.7c0-0.3-0.1-0.5-0.3-0.6c-0.2-0.2-0.6-0.2-0.8-0.2h-0.4L183.4,40.6z"/>
	<path fill="#FFFFFF" d="M193.5,38.9h-2.7l-0.2,1.6h2.6l-0.2,1.6h-2.6l-0.2,1.8h2.7l-0.2,1.6h-4.6l1-8.2h4.5L193.5,38.9z"/>
	<path fill="#FFFFFF" d="M198,37.3c0.8,0,1.6,0.1,2.2,0.7c0.3,0.3,0.6,0.8,0.6,1.7c0,0.8-0.3,1.4-0.7,1.8c-0.4,0.3-0.8,0.6-1.3,0.7
		l2.1,3.3h-2.2l-2-3.2l-0.4,3.2h-1.9l1-8.2H198z M196.8,41h0.5c0.3,0,0.8,0,1.1-0.3c0.3-0.3,0.4-0.6,0.4-1c0-0.3-0.1-0.6-0.4-0.8
		c-0.2-0.2-0.6-0.2-1-0.2h-0.3L196.8,41z"/>
	<path fill="#FFFFFF" d="M204.8,37.3l-0.8,6.6h2.6l-0.2,1.6h-4.5l1-8.2H204.8z"/>
	<path fill="#FFFFFF" d="M210.3,37.3l-1,8.2h-1.9l1-8.2H210.3z"/>
	<path fill="#FFFFFF" d="M211.1,45.5l1-8.2h1.6l3.8,5.3l0.7-5.3h1.9l-1,8.2h-1.6l-3.8-5.4l-0.7,5.4H211.1z"/>
	<path fill="#FFFFFF" d="M224,41.6h3.1l-0.2,1.5h-3.1L224,41.6z"/>
	<path fill="#FFFFFF" d="M234.7,38.9l-0.8,6.6H232l0.8-6.6H231l0.2-1.6h5.5l-0.2,1.6H234.7z"/>
	<path fill="#FFFFFF" d="M242,38.9h-2.7l-0.2,1.6h2.6l-0.2,1.6H239l-0.2,1.8h2.7l-0.2,1.6h-4.6l1-8.2h4.5L242,38.9z"/>
	<path fill="#FFFFFF" d="M245.8,37.3l-0.8,6.6h2.6l-0.2,1.6h-4.5l1-8.2H245.8z"/>
	<path fill="#FFFFFF" d="M256.3,43.9h-3.1l-0.8,1.5h-2l4.3-8.2h1.7l2.2,8.2h-1.9L256.3,43.9z M256,42.5l-0.7-2.9l-1.4,2.9H256z"/>
	<path fill="#FFFFFF" d="M261.1,37.3l1.4,5.3l2.7-5.3h2.1l-4.5,8.2h-1.3l-2.5-8.2H261.1z"/>
	<path fill="#FFFFFF" d="M270.2,37.3l-1,8.2h-1.9l1-8.2H270.2z"/>
	<path fill="#FFFFFF" d="M273.2,37.3l1.4,5.3l2.7-5.3h2.1l-4.5,8.2h-1.3l-2.5-8.2H273.2z"/>
</g>
<rect y="3.3" fill="#FFFFFF" width="66" height="4"/>
<rect x="17.9" y="12.3" fill="#FFFFFF" width="48.1" height="4"/>
<rect x="35.9" y="20.3" fill="#FFFFFF" width="30.1" height="4"/>
<rect x="51" y="28.3" fill="#FFFFFF" width="15" height="4"/>
<rect x="390.3" y="3.8" fill="#FFFFFF" width="66" height="4"/>
<rect x="390.3" y="12.8" fill="#FFFFFF" width="48.1" height="4"/>
<rect x="390.3" y="20.8" fill="#FFFFFF" width="30.1" height="4"/>
<rect x="390.3" y="28.8" fill="#FFFFFF" width="15" height="4"/>
</svg>
