<?xml version="1.0" encoding="utf-8"?>
<!-- Generator: Adobe Illustrator 18.1.1, SVG Export Plug-In . SVG Version: 6.00 Build 0)  -->
<svg version="1.1" id="Layer_1" xmlns="http://www.w3.org/2000/svg" xmlns:xlink="http://www.w3.org/1999/xlink" x="0px" y="0px"
	 viewBox="0 0 869.6 143.1" enable-background="new 0 0 869.6 143.1" xml:space="preserve">
<polygon opacity="0.43" points="814.4,76.2 811.9,81.5 810.6,99.1 806,99.3 803.9,102 800.3,102.9 793,109.6 789.8,109.8 
	783.8,115.7 776.3,116.2 766.8,120.9 758.6,118.2 748.9,107.7 740.3,108.7 736.6,105 735.7,86.7 733,83.8 718.8,83.1 717.9,95.5 
	715.6,95.5 714.1,90.2 696.9,91.3 696.9,98.4 686.2,98.6 686.4,112.1 674.8,112.3 666.1,109.8 665,84.4 663.1,80.6 652.2,86.7 
	648.5,108.7 643,110 642.8,120.9 638,118.8 636.7,110 632.1,107.9 631.2,67 618.6,58.9 605.6,61.7 605.4,107.3 592,108.3 
	589.5,115.5 548.1,113.5 547.4,106.6 541.2,105.2 539.9,88.4 529.2,88.8 528.4,112.5 519.2,112.5 518.8,83.1 508.3,82.5 507.5,68.5 
	501.3,62.4 484.4,62.8 482.9,69.9 474.7,71 473.9,104.8 468.9,104.1 468.4,98 459.4,92.4 460,55.9 455.2,54.6 450.2,46.8 
	436.5,46.6 435.5,51.9 426.9,53.7 425.2,70.6 421.4,70.8 421,40.4 404.8,32.8 389.3,38.6 390,69.5 385.6,69.5 385.1,39.1 
	359.3,27.4 354.5,31.3 352.8,66.7 348.4,60.3 333.8,57.5 333.5,51.2 311,51.2 311,58.2 304.6,60.1 302.5,83.1 298.2,87.7 
	298.2,106.8 278.3,109.8 277.7,123.5 265.3,123 258.8,115.7 246.2,118 241.8,126 229.5,124.9 230.3,103.9 214.4,107.7 213.3,114.6 
	207.2,119.2 209.7,91.5 196.1,91.8 195.5,97.9 188.9,98.2 187.3,103.9 181.6,104.5 180.2,110.9 175.5,112.3 175.5,126.6 
	171.1,125.5 171.3,77.4 161.7,78.5 153.9,95.5 151.9,124.7 149.4,125.1 145.5,110.7 128.4,113.4 125.2,126.4 112,127.2 114.7,113 
	87.8,115 82.4,131.7 74.8,131.7 71.4,76.9 63.1,79.4 60.2,121.5 53.4,122.8 53.1,129.5 46.9,130.6 46.3,135.2 41.7,135.4 
	24.1,142.3 855.7,142.3 846.9,139 833.9,128.5 827.6,110.4 821.1,106.6 820.1,80.2 817.4,76 816.7,67.4 815.6,66.7 "/>
<g id="Eupibg.tif_4_" opacity="0.65">
	<g>
		<path d="M359.7,0c0,0.6,0.1,1.2,0.1,1.8c0.2,8.4,0.3,16.8,0.6,25.2c0.1,1.5,0.2,3.1,1.3,4.6c0.7,1,0.3,2.9,0.3,4.4
			c0,1.1,0.2,1.8,1.4,2.4c3.4,1.7,4,7.4,1.1,10.5c-0.7,0.7-1.5,1.2-1.9,1.9c-0.3,0.9-0.6,1.7-0.8,2.6c-0.1,0.6-0.2,1.1-0.1,1.7
			c0.8,15.3,1.7,30.5,2.6,45.8c0.4,6.6,0.6,13.2,0.9,19.9c0,0.7,0.1,1.4,0.1,2.3c2-0.2,3.9-0.4,6-0.7c-0.3-4.8,0.7-9.6-0.8-14.6
			c0.9-1,2.6-2.2,3.1-3.7c0.7-1.9,0.4-4.1,0.4-6.1c0-1.3,0.9-2.5,2.1-2.5c4.2,0,8.3,0,12.7,0c0.2,2.6,0.4,5,0.5,7.6
			c2.9,0.2,5.8,0.4,8.7,0.5c0.2,0.8,0.3,1.3,0.4,2c4.9,0,9.7,0,14.4,0c0.6-3.4,1.2-6.8,1.9-10.1c0.1-0.4,0.6-0.7,0.9-1.1
			c0.3,0.3,0.9,0.6,1,1c0.3,1,0.4,2.1,0.6,3.5c0.9-1,1.5-1.9,2.2-2.6c5.5-6.1,11.6-7.5,17.7-3c1.3,1,2.2,2.5,3.3,3.8
			c0.6,0.8,1.2,1.6,2.2,2.9c0.2-2.1,0.2-3.5,0.4-4.9c0-0.3,0.5-0.6,0.8-1c0.3,0.3,0.8,0.5,0.9,0.8c0.8,3.4,1.6,6.8,2.4,10.5
			c4.1,0,8.7,0,13.5,0c0.7-3,3.5-1.8,5.7-2.4c0-2.3,0-4.5,0-7.2c2.7,0,5.2,0,7.7,0c3.1,0,6.1-0.2,9.2-0.2c0.8,0,1.6,0.4,2.6,0.7
			c-1.5,3.4-0.7,6.3,0.5,9.3c0.4-0.8,0.8-1.5,1.1-2.2c0.6,1.8,1.1,3.3,1.7,5.1c-0.2,1-0.5,2.5-0.6,3.9c-0.2,3.4-0.3,6.8-0.5,10.4
			c1.8,0,3.4,0,5.3,0c0-3.4,0.3-6.9-0.1-10.4c-0.3-3.4-1.3-6.7-2-10.3c0.9-0.3,2-0.6,3.5-1c-0.4-1.4-0.7-2.6-1.2-4.2
			c5.4,0,10.7,0,15.9,0c1.2,0,2.3,0,3.5,0c0.9,0,2,0.4,2.4-1c0.1-0.2,0.8-0.3,1.2-0.3c0.9,0,1.8,0,2.2,0c-0.3-2-0.6-3.9-1-6.1
			c1.4,0.8,2.5,1.5,3.8,2.3c0.3-1,0.6-1.9,1.1-3.4c1.3,0.8,2.5,1.5,3.7,2.3c0.2-0.4,0.7-1,1.3-2c0.3,1.5,0.5,2.7,0.7,4.2
			c1.2-1.3,2.3-2.4,3.4-3.6c0.6,2.1,0.6,2.1-2.6,6.1c1.2,0.1,2.3,0.1,3.3,0.3c0.9,0.2,1.6,0.7,2.5,1c0.6,0.2,1.3,0.4,2,0.4
			c5.2,0,10.4-0.1,15.6-0.1c1,0,1.9,0,2.9,0c-0.8,4.2-0.8,4.2,3.1,5.1c-4.3,5.9-2.9,12.7-2.9,19.4c1,0,1.9,0,2.9,0
			c0-4.6,0-9.3,0-14.1c3.5,0,6.7,0,10.2,0c0,1.7,0,3.4,0,5c3,0.5,3.3,0.5,3.5-2.1c0.3-3.8,0.3-7.6,0.1-11.5c-0.2-4.1-0.3-8.1,1-12.1
			c0.6-1.9,0.8-4.1-0.4-6.2c-0.4-0.6-0.1-2,0.4-2.6c1.7-2,1.1-4.4,1.5-6.7c0-0.2-0.2-0.5-0.3-0.6c-1.2-1.2-2.5-2.3-3.9-3.6
			c0.7-0.5,1.1-0.8,1.2-0.9c1.2,1,2.3,1.9,3.3,2.8c0.2-0.1,0.3-0.2,0.5-0.3c-0.1-1.1-0.7-2.7,1.5-2.4c0.1,0.6,0.2,1.2,0.3,1.9
			c0.8,0.1,1.6,0.1,3.2,0.3c-0.9,0.8-1.4,1.5-2,1.7c-1,0.4-1.3,1-1.3,2.1c0,1-0.2,1.9-0.3,2.9c-0.1,1.2-0.3,2.3,1.3,3.1
			c0.5,0.2,0.8,2.1,0.4,2.8c-1.1,2-1.2,4.1-0.4,6c1.4,3.6,1.5,7.2,1.3,10.9c-0.2,4.1-0.2,8.3-0.3,12.4c0,1.7,0.9,2.5,2.6,2.8
			c1.3,0.2,2.5,0.6,3.3,0.8c-0.3,2.9-0.6,5.6-0.8,8.4c2.3,0,4.2,0,6.2,0c0-1.5,0-2.9,0-4.6c2,0,3.9,0,6,0c0-1,0-1.7,0-2.5
			c0-11.1,0-22.1,0.1-33.2c0-1,0.5-2.1,1.2-2.8c3-3,6.2-5.9,9.6-9.1c0,1.2-0.1,2,0,2.7c0.2,0.7,0.7,1.3,1,1.9c0.3,0.6,0.7,1.3,0.7,2
			c0,10.7,0,21.5,0,32.2c0,4.8,0,9.6,0,14.6c1.2,0,2.3,0,3.6,0c0-0.8,0-1.5,0-2.3c0-13.7,0-27.3,0-41c0-2.5,0.8-4.5,2.5-6.3
			c2.9-3,6.4-4.9,10.4-6.2c0.1,2.2,1.7,1.8,3.1,1.8c0.1,1.3,0.2,2.3,0.2,3.5c0.8,0.1,1.5,0.2,2.3,0.3c0,15.3,0,30.5,0,45.9
			c2.1,0,3.9,0,6,0c0-2.5-0.1-4.9,0-7.4c0-0.7,0.5-1.3,0.8-1.9c0.4-0.7,1-1.3,1.4-2.1c1.1-2.3,2.2-3.1,4.3-2.9
			c2.6,0.3,4.2,1.5,4.8,3.9c0.1,0.4,0.1,0.8,0.2,1.3c0.5,0.1,1,0.3,1.7,0.4c0,0.2,0.1,0.5,0.1,0.7c0,3.3,0,6.5,0,9.8
			c0,3.1,0.1,3.1,3.4,3.7c0-1.7,0-3.3,0-5.2c1.9,0,3.6,0,5.4,0c0.1-0.9,0.1-1.6,0.2-2.4c2.3,0,4.6,0,7.1,0c0,4.6,0,9,0,13.6
			c1.7,0,3.2,0,4.8,0c0-2.5,0-5,0-7.4c3.7-0.9,5.1-0.5,5.7,1.5c1.9,0,3.8,0,5.8,0c0.8,0,1.7,0,2.5,0.1c3.8,0.5,4.1,0.8,4.1,4.7
			c0,2.4,0,4.8,0,7.2c0,0.1,0.1,0.2,0.1,0.5c0.6,0,1.3,0,2.1,0c0.1-0.7,0.1-1.4,0.2-2.2c2.5,0,5,0,7.6,0c0,1.7,0,3.3,0,5.2
			c1.3,0.1,2.3,0.1,3.5,0.2c0.1,0.7,0.1,1.3,0.2,1.9c-152.1,0-304,0-456.2,0c0-2.6,0-4.8,0-7.1c0-0.3,0.2-0.7,0.4-0.8
			c2.8-0.8,5.6-1.5,8.7-2.3c0,2.2,0,3.9,0,5.7c1,0,1.8,0,2.9,0c0-3.1,0-6.1,0-9.3c0.9-0.1,1.6-0.2,2.5-0.4c0-1.6,0-3.3,0-5.1
			c4.1,0,7.9,0,12,0c0,2.5,0,4.9,0,7.5c1.7,0,3.1,0,4.8,0c0-4.4,0-8.9,0-13.4c4.1-1.1,7.2,1.5,10.8,2.2c0,2.3,0,4.6,0,6.9
			c3.5,0.1,3.6,0,3.6-3.1c0-8.5,0-17,0-25.6c0-0.7,0-1.4,0-2.2c3.9,0,7.6,0,11.5,0c0,4.7,0,9.4,0,14.1c0.2,0,0.5,0.1,0.7,0.1
			c0.2-0.8,0.5-1.7,0.5-2.5c0-5.8,0-11.6,0-17.4c0-0.9-0.4-2,0.9-2.4c0.2-0.1,0.2-0.6,0.2-0.9c0-1.5-0.3-3,2-3.3
			c0.4-0.1,0.7-1.6,0.8-2.4c0.4-2,0.8-3.7,3.4-3.9c0.5,0,0.9-1.1,1.5-1.8c1.6-0.2,2.8,0.9,3.2,2.8c0.7,4.2,1.5,8.4,2.1,12.6
			c0.2,1.1-0.1,2.3-0.2,3.4c0,0.4-0.2,0.9-0.2,1.3c0,3.8-0.3,7.6,0.1,11.3c0.5,4.1,2.4,8,3.6,11.9c0.8-6.8,1.5-13.7,2.3-20.5
			c0.3,0,0.7,0,1,0c1.2,8.4,2.4,16.7,3.6,25.1c0.3,0.1,0.5,0.2,0.8,0.3c0.4-0.4,1-0.8,1.1-1.3c0.3-1.2-0.1-3.2,0.5-3.6
			c1.8-1.2,4-1.7,6.1-2.4c0.8-0.3,1.8,0,2.9,0c0,1.9,0,3.8,0,5.6c1.5,0.2,3.8-1.2,3.7-2.3c-0.4-5.1,0.9-9.9,2.6-14.6
			c0.4-1,0.4-2.2,1-3.4c0.6,1.9,1.3,3.8,1.8,5.7c0.6,2.1,1.1,4.2,1.5,6.3c0.3,2.2,0.4,4.4,0.6,6.4c0.7,0.9,1.4,1.8,2.3,2.8
			c0.8-23.8,1.5-47.6,2.3-71.3c-5.9-2.9-6.5-8.7-1.6-12.7c2.1-1.7,1.1-4,0.9-6.1c0-0.2-0.2-0.4-0.3-0.8c0.6-0.1,1.1-0.2,1.5-0.3
			c1.8-4.7,1-9.6,1.1-14.3c0.1-4.8,0-9.6,0-14.4c0-0.7,0-1.5,0-2.2C359.2,0,359.4,0,359.7,0z"/>
	</g>
</g>
</svg>
